<?xml version="1.0" encoding="UTF-8"?>
<svg version="1.1" xmlns="http://www.w3.org/2000/svg" width="603" height="599">
<path d="M0 0 C198.99 0 397.98 0 603 0 C603 197.67 603 395.34 603 599 C404.01 599 205.02 599 0 599 C0 401.33 0 203.66 0 0 Z " fill="#FEFEFE" transform="translate(0,0)"/>
<path d="M0 0 C2.15622656 1.49917898 2.85748656 2.85349264 3.8203125 5.265625 C8.11266796 3.74253113 11.90960321 1.57000385 15.83203125 -0.7109375 C17.8203125 -1.734375 17.8203125 -1.734375 19.8203125 -1.734375 C22.25833334 4.87899649 22.04855895 11.21810562 21.9453125 18.203125 C21.93628906 19.36392578 21.92726562 20.52472656 21.91796875 21.72070312 C21.89452412 24.56922608 21.86170772 27.41731578 21.8203125 30.265625 C22.94566406 29.85570312 24.07101563 29.44578125 25.23046875 29.0234375 C40.71975673 23.52647186 59.77997682 18.15502093 75.8203125 24.265625 C76.75454895 27.27594244 76.86481161 28.13212768 75.8203125 31.265625 C74.69725708 31.27178833 74.69725708 31.27178833 73.55151367 31.27807617 C52.87984245 31.47594422 34.48460473 33.43347889 15.8203125 42.765625 C13.27315351 44.03920449 10.7879985 45.06523615 8.1328125 46.078125 C3.19259513 48.00473481 -1.33530958 50.45720358 -5.9296875 53.09375 C-8.1796875 54.265625 -8.1796875 54.265625 -10.1796875 54.265625 C-10.1796875 54.925625 -10.1796875 55.585625 -10.1796875 56.265625 C-11.1078125 56.595625 -12.0359375 56.925625 -12.9921875 57.265625 C-19.63532594 60.09335603 -25.37597965 64.93458836 -30.890625 69.51953125 C-33.1796875 71.265625 -33.1796875 71.265625 -35.1796875 71.265625 C-35.6746875 72.750625 -35.6746875 72.750625 -36.1796875 74.265625 C-36.8396875 74.265625 -37.4996875 74.265625 -38.1796875 74.265625 C-38.6746875 75.750625 -38.6746875 75.750625 -39.1796875 77.265625 C-39.93894531 77.70519531 -40.69820313 78.14476562 -41.48046875 78.59765625 C-44.73952214 80.61157202 -46.23119253 82.79251348 -48.3671875 85.953125 C-49.59077721 87.75692551 -50.85087405 89.53787418 -52.1796875 91.265625 C-52.8396875 91.265625 -53.4996875 91.265625 -54.1796875 91.265625 C-54.6746875 92.750625 -54.6746875 92.750625 -55.1796875 94.265625 C-55.8396875 94.265625 -56.4996875 94.265625 -57.1796875 94.265625 C-57.4478125 94.9875 -57.7159375 95.709375 -57.9921875 96.453125 C-59.17176012 99.24684962 -60.6218849 101.66928734 -62.1796875 104.265625 C-62.45167969 104.98492187 -62.72367187 105.70421875 -63.00390625 106.4453125 C-64.53374073 110.11488225 -66.50175753 113.45472487 -68.4921875 116.890625 C-71.65053158 122.41269393 -74.51166696 127.94217184 -77.05078125 133.78125 C-78.85129269 137.74362119 -80.99679798 141.50362391 -83.1796875 145.265625 C-83.8396875 145.265625 -84.4996875 145.265625 -85.1796875 145.265625 C-85.27121094 145.95011719 -85.36273438 146.63460937 -85.45703125 147.33984375 C-86.35272391 150.96618863 -87.92995032 153.81609808 -89.7421875 157.078125 C-90.2362207 157.9743457 -90.2362207 157.9743457 -90.74023438 158.88867188 C-91.54742017 160.35096498 -92.36273667 161.8087649 -93.1796875 163.265625 C-93.8396875 163.265625 -94.4996875 163.265625 -95.1796875 163.265625 C-95.27765625 163.98234375 -95.375625 164.6990625 -95.4765625 165.4375 C-96.28149746 168.67512729 -97.57145069 170.75250766 -99.4296875 173.515625 C-102.59010887 178.31816222 -105.46532586 183.19965051 -108.1796875 188.265625 C-98.81836666 187.21541879 -90.05615862 184.6148365 -83.6171875 177.390625 C-83.1428125 176.689375 -82.6684375 175.988125 -82.1796875 175.265625 C-81.5196875 175.265625 -80.8596875 175.265625 -80.1796875 175.265625 C-80.1796875 174.605625 -80.1796875 173.945625 -80.1796875 173.265625 C-79.1896875 173.595625 -78.1996875 173.925625 -77.1796875 174.265625 C-76.9296875 177.515625 -76.9296875 177.515625 -77.1796875 181.265625 C-78.47072393 182.6399541 -79.8053584 183.97458857 -81.1796875 185.265625 C-82.3150079 190.03101247 -82.34048558 194.79841357 -82.34765625 199.671875 C-82.35098465 200.47363159 -82.35431305 201.27538818 -82.35774231 202.10144043 C-82.36278826 203.79581127 -82.36515136 205.49019197 -82.36499023 207.18457031 C-82.36715717 209.72999291 -82.38528334 212.27496754 -82.40429688 214.8203125 C-82.50790128 243.63218847 -73.67847687 264.07407653 -54.1796875 285.265625 C-53.46683594 286.05066406 -52.75398438 286.83570313 -52.01953125 287.64453125 C-43.13354709 296.98330441 -32.9250448 304.05957474 -21.1796875 309.265625 C-21.48261719 308.62238281 -21.78554687 307.97914063 -22.09765625 307.31640625 C-25.45372507 300.07762397 -28.41721035 292.74972482 -31.1796875 285.265625 C-31.4183252 284.62351074 -31.65696289 283.98139648 -31.90283203 283.31982422 C-35.17026245 274.48392607 -38.05387061 265.62062161 -40.44335938 256.50512695 C-41.37362396 252.98948852 -42.40056369 249.66105732 -43.796875 246.30078125 C-45.47368237 241.93680317 -45.67879628 237.90746168 -45.6171875 233.265625 C-45.60816406 232.4396582 -45.59914063 231.61369141 -45.58984375 230.76269531 C-45.11927986 213.73743233 -38.64452823 200.16710983 -29.1796875 186.265625 C-29.8190625 185.95625 -30.4584375 185.646875 -31.1171875 185.328125 C-33.1796875 184.265625 -33.1796875 184.265625 -34.1796875 183.265625 C-34.74015888 175.32202107 -34.64894784 168.4932507 -31.1796875 161.265625 C-30.5196875 161.265625 -29.8596875 161.265625 -29.1796875 161.265625 C-28.1896875 158.295625 -28.1896875 158.295625 -27.1796875 155.265625 C-25.8596875 155.595625 -24.5396875 155.925625 -23.1796875 156.265625 C-22.33510299 162.6000088 -24.54027109 166.31747511 -27.76953125 171.71484375 C-29.01451065 173.9668425 -29.71547036 175.75650198 -30.1796875 178.265625 C-17.16122436 172.70638939 -7.06203176 164.25999334 1.8203125 153.265625 C2.66851562 152.26917969 3.51671875 151.27273437 4.390625 150.24609375 C11.62707737 142.35970628 11.62707737 142.35970628 14.12890625 132.37890625 C14.15404297 131.43982422 14.17917969 130.50074219 14.20507812 129.53320312 C14.23988476 127.58274252 14.27120703 125.63221622 14.29882812 123.68164062 C14.64243186 111.38733149 19.27221285 100.95450597 26.8203125 91.265625 C28.83984375 89.4765625 28.83984375 89.4765625 30.8203125 88.265625 C33.5703125 88.578125 33.5703125 88.578125 35.8203125 89.265625 C36.2578125 92.390625 36.2578125 92.390625 35.8203125 96.265625 C33.79903118 98.71132235 31.5180328 100.59938599 28.8203125 102.265625 C28.1603125 102.265625 27.5003125 102.265625 26.8203125 102.265625 C26.5521875 102.94625 26.2840625 103.626875 26.0078125 104.328125 C25.15787566 106.43060033 24.25578606 108.51228755 23.3203125 110.578125 C16.75399159 126.72033057 19.48473282 143.89239331 23.8203125 160.265625 C23.99159668 160.925625 24.16288086 161.585625 24.33935547 162.265625 C30.57464375 185.6494535 40.79232083 208.0399418 56.8203125 226.265625 C55.65466679 219.66029932 53.39468808 213.53972306 49.5703125 208.015625 C47.53659579 204.81978446 47.46631405 202.98260875 47.8203125 199.265625 C51.79132136 200.77796913 53.39662532 203.12284317 55.7578125 206.578125 C58.49537005 210.56744843 61.3366518 213.90826016 64.8203125 217.265625 C66.14869141 218.62880859 66.14869141 218.62880859 67.50390625 220.01953125 C68.41269531 220.94636719 69.32148438 221.87320313 70.2578125 222.828125 C71.16402344 223.75753906 72.07023438 224.68695313 73.00390625 225.64453125 C75.83040544 228.27501801 78.560947 230.22552141 81.8203125 232.265625 C81.8203125 228.635625 81.8203125 225.005625 81.8203125 221.265625 C83.4703125 221.595625 85.1203125 221.925625 86.8203125 222.265625 C87.1503125 222.925625 87.4803125 223.585625 87.8203125 224.265625 C88.72495276 216.06445691 88.98060867 207.95401323 88.98828125 199.70703125 C88.99160965 198.44148911 88.99493805 197.17594696 88.99836731 195.87205505 C89.0034029 193.21048427 89.00621254 190.54901585 89.00561523 187.88745117 C89.00551362 184.51128144 89.01918924 181.13532199 89.03638744 177.759202 C89.0503068 174.49182015 89.0495991 171.22443867 89.05078125 167.95703125 C89.06155952 166.16586632 89.06155952 166.16586632 89.07255554 164.33851624 C89.05227322 156.79146729 88.30272208 149.6661891 86.8203125 142.265625 C87.8103125 141.935625 88.8003125 141.605625 89.8203125 141.265625 C92.59494649 142.652942 92.79019026 144.61120403 93.91015625 147.36328125 C96.80788309 153.41990344 102.51692915 158.02130276 107.2578125 162.640625 C109.16986669 164.59931466 110.89636774 166.53811891 112.6328125 168.640625 C115.39311735 171.89961088 118.37845327 174.66104497 121.67578125 177.37109375 C123.8203125 179.265625 123.8203125 179.265625 125.74609375 181.56640625 C133.41462562 190.13217037 143.43458003 190.5728705 154.30004883 191.81420898 C157.00620909 192.29892179 159.30736903 193.16570144 161.8203125 194.265625 C161.8203125 196.575625 161.8203125 198.885625 161.8203125 201.265625 C156.54715917 200.8203365 151.80261026 200.18189337 146.8203125 198.265625 C146.8203125 198.925625 146.8203125 199.585625 146.8203125 200.265625 C147.54089844 200.52214844 148.26148438 200.77867187 149.00390625 201.04296875 C152.89548847 202.73237962 156.02327673 205.19108847 159.41796875 207.70703125 C161.68270332 209.17634685 163.23271621 209.70248045 165.8203125 210.265625 C165.87437256 209.60715576 165.92843262 208.94868652 165.98413086 208.27026367 C166.5800852 201.33901582 167.4133767 194.46622144 168.3828125 187.578125 C168.52138672 186.57845703 168.65996094 185.57878906 168.80273438 184.54882812 C169.13964254 182.12076586 169.47886027 179.69305165 169.8203125 177.265625 C171.1403125 177.595625 172.4603125 177.925625 173.8203125 178.265625 C174.29753477 186.13095493 173.26516061 193.52610397 171.96435547 201.25048828 C170.95890278 207.24126062 170.21558292 213.20026858 169.8203125 219.265625 C169.1603125 219.265625 168.5003125 219.265625 167.8203125 219.265625 C167.63855469 219.93207031 167.45679688 220.59851563 167.26953125 221.28515625 C166.73650685 223.23957906 166.19831587 225.19259679 165.65625 227.14453125 C165.1434794 229.05903455 164.66191281 230.98264759 164.234375 232.91796875 C161.172015 246.14179602 153.86617856 257.34550363 144.8203125 267.265625 C144.34207031 267.81734375 143.86382812 268.3690625 143.37109375 268.9375 C141.3701291 270.6511725 139.28915191 271.39819494 136.8203125 272.265625 C139.34122028 272.2928617 141.86182707 272.31257707 144.3828125 272.328125 C145.08728516 272.33650391 145.79175781 272.34488281 146.51757812 272.35351562 C150.00704642 272.36959612 153.33510092 272.248512 156.78515625 271.69921875 C157.78675781 271.55613281 158.78835938 271.41304688 159.8203125 271.265625 C160.8203125 272.265625 160.8203125 272.265625 160.8828125 275.828125 C160.851875 277.5296875 160.851875 277.5296875 160.8203125 279.265625 C159.96308594 279.4615625 159.10585938 279.6575 158.22265625 279.859375 C150.19551204 281.95892118 145.39191017 284.22536458 140.8203125 291.265625 C140.4903125 291.925625 140.1603125 292.585625 139.8203125 293.265625 C139.1603125 293.265625 138.5003125 293.265625 137.8203125 293.265625 C137.6346875 294.4825 137.4490625 295.699375 137.2578125 296.953125 C136.0298872 302.59446297 133.28865556 307.19572032 130.5078125 312.20703125 C125.90047792 320.55782518 123.79043273 329.12604787 126.5 338.65625 C127.35194817 340.74579923 127.35194817 340.74579923 128.8203125 343.265625 C130.1403125 338.645625 131.4603125 334.025625 132.8203125 329.265625 C134.1403125 328.935625 135.4603125 328.605625 136.8203125 328.265625 C137.284375 329.9053125 137.284375 329.9053125 137.7578125 331.578125 C138.40369147 333.81970494 139.0826242 336.0525601 139.8203125 338.265625 C141.4703125 338.595625 143.1203125 338.925625 144.8203125 339.265625 C144.76810547 338.35683594 144.76810547 338.35683594 144.71484375 337.4296875 C144.42279642 328.39012739 145.68387826 321.36038566 151.5703125 314.265625 C160.88238141 304.65316677 173.22145377 298.30714305 184.71484375 291.67578125 C187.4005563 290.11830748 190.03682641 288.5089986 192.64453125 286.82421875 C193.2360498 286.44475098 193.82756836 286.0652832 194.43701172 285.67431641 C196.02525831 284.64764966 197.60476753 283.60750164 199.18359375 282.56640625 C201.8203125 281.265625 201.8203125 281.265625 204.17578125 281.55859375 C204.71847656 281.79191406 205.26117188 282.02523438 205.8203125 282.265625 C205.67910536 284.20346765 205.53218377 286.14089455 205.3828125 288.078125 C205.30160156 289.15707031 205.22039062 290.23601562 205.13671875 291.34765625 C204.8203125 294.265625 204.8203125 294.265625 203.8203125 297.265625 C203.78077016 299.59862325 203.77629518 301.93270689 203.8203125 304.265625 C215.0289937 294.52190821 218.8933886 277.37029941 220.8203125 263.265625 C220.97258301 262.21205811 220.97258301 262.21205811 221.12792969 261.13720703 C222.84042419 248.73107572 223.00348163 236.32862225 223.0078125 223.828125 C223.00880951 223.05247192 223.00980652 222.27681885 223.01083374 221.47766113 C223.01050805 219.24152201 223.00144118 217.00562864 222.98828125 214.76953125 C222.97704224 212.81768921 222.97704224 212.81768921 222.96557617 210.82641602 C222.83173617 207.54564887 222.41410852 204.48938161 221.8203125 201.265625 C221.758235 199.64167752 221.73319209 198.01557203 221.7578125 196.390625 C221.76683594 195.60945312 221.77585937 194.82828125 221.78515625 194.0234375 C221.80255859 193.15332031 221.80255859 193.15332031 221.8203125 192.265625 C223.1403125 192.595625 224.4603125 192.925625 225.8203125 193.265625 C225.85995117 193.97992676 225.89958984 194.69422852 225.94042969 195.43017578 C227.0008135 214.69536015 227.0008135 214.69536015 231.8203125 233.265625 C232.3304442 234.74399343 232.83809469 236.22321951 233.34375 237.703125 C236.00398581 245.451885 236.00398581 245.451885 239 253.07421875 C239.8203125 255.265625 239.8203125 255.265625 239.8203125 258.265625 C243.11969169 255.50931133 244.81308405 251.85519616 246.6953125 248.078125 C247.04609863 247.37558594 247.39688477 246.67304688 247.75830078 245.94921875 C251.30261348 238.62267627 253.69323264 231.1143848 255.8203125 223.265625 C256.18125 221.9971875 256.5421875 220.72875 256.9140625 219.421875 C258.06936855 214.73690977 258.26810782 210.07230191 258.4453125 205.265625 C258.48398437 204.39550781 258.52265625 203.52539062 258.5625 202.62890625 C258.65572137 200.50812014 258.73905386 198.38690315 258.8203125 196.265625 C259.8103125 196.595625 260.8003125 196.925625 261.8203125 197.265625 C261.84536865 198.02705811 261.8704248 198.78849121 261.89624023 199.57299805 C262.01250298 203.03319876 262.13509228 206.49314754 262.2578125 209.953125 C262.29712891 211.15130859 262.33644531 212.34949219 262.37695312 213.58398438 C262.41884766 214.74091797 262.46074219 215.89785156 262.50390625 217.08984375 C262.54056396 218.15291748 262.57722168 219.21599121 262.61499023 220.3112793 C262.80557254 223.05353434 263.24602879 225.58264328 263.8203125 228.265625 C264.03729737 230.70067737 264.22321995 233.13863884 264.3828125 235.578125 C264.50849609 237.45951172 264.50849609 237.45951172 264.63671875 239.37890625 C264.69730469 240.33152344 264.75789063 241.28414062 264.8203125 242.265625 C265.80701009 240.37370025 266.7843727 238.47690522 267.7578125 236.578125 C268.57572266 234.99451172 268.57572266 234.99451172 269.41015625 233.37890625 C271.99516052 227.67184696 271.97945901 222.42541129 271.9453125 216.265625 C271.94337891 215.41693848 271.94144531 214.56825195 271.93945312 213.69384766 C271.90039291 207.96827108 271.5667372 202.32353054 271.04296875 196.62109375 C270.59346957 189.84706218 270.74717665 183.05100646 270.8203125 176.265625 C271.8103125 176.265625 272.8003125 176.265625 273.8203125 176.265625 C278.76143367 224.92340331 278.76143367 224.92340331 274.8203125 240.265625 C275.67496094 240.636875 275.67496094 240.636875 276.546875 241.015625 C287.40499083 246.98572305 293.23067813 258.69549825 296.8815918 269.97583008 C298.40793453 275.32497659 299.30170781 280.69959932 300.0703125 286.203125 C300.23797119 287.40316162 300.40562988 288.60319824 300.57836914 289.83959961 C303.11181918 309.68603156 303.02909432 329.67654853 298.8203125 349.265625 C298.59553223 350.3781665 298.59553223 350.3781665 298.36621094 351.51318359 C295.60174255 365.1212939 292.47398375 379.15426496 280.69921875 387.828125 C273.49847155 392.47888282 267.32276733 392.83108451 258.8203125 392.265625 C252.77027781 390.90087472 247.71957779 387.18875298 244.37109375 382.03515625 C241.3235732 376.40291913 240.12890754 371.64325586 239.8203125 365.265625 C238.17421757 366.16097757 236.52845382 367.05693899 234.8828125 367.953125 C233.87863281 368.4996875 232.87445313 369.04625 231.83984375 369.609375 C228.56942206 371.40324149 225.32256862 373.23578931 222.0859375 375.08984375 C215.12166089 378.70406316 208.27301513 380.50430939 200.6328125 382.203125 C199.49255615 382.46109863 198.3522998 382.71907227 197.17749023 382.98486328 C189.92796991 384.61116036 182.66528698 386.16891725 175.3828125 387.640625 C174.55563721 387.80812256 173.72846191 387.97562012 172.8762207 388.14819336 C169.80980571 388.75211028 166.9537128 389.265625 163.8203125 389.265625 C163.80613281 390.28140625 163.79195313 391.2971875 163.77734375 392.34375 C163.38739079 405.8929629 159.6561313 417.72869658 150.3828125 427.953125 C149.5371875 428.71625 148.6915625 429.479375 147.8203125 430.265625 C147.33433594 430.7090625 146.84835937 431.1525 146.34765625 431.609375 C141.41519098 435.94893523 137.58597907 437.74163095 130.9296875 437.50390625 C123.9711226 436.71784614 119.76928795 433.99871932 115.4140625 428.5546875 C107.53653345 417.24039332 102.8203125 402.05557672 102.8203125 388.265625 C101.799375 388.28302734 101.799375 388.28302734 100.7578125 388.30078125 C92.07302363 388.3816237 83.47722517 387.88083707 74.8203125 387.265625 C74.70816406 388.55855469 74.59601563 389.85148437 74.48046875 391.18359375 C72.99624094 404.38676809 68.18907437 420.03805793 57.84375 428.97265625 C52.08055817 432.65531358 45.55623636 434.13477647 38.8203125 433.265625 C29.94957457 429.54442561 26.26285344 419.75098991 22.8203125 411.453125 C16.73390719 395.3142307 13.99808306 377.4087809 12.18359375 360.30859375 C11.72814591 356.49360591 10.8132702 352.9726671 9.8203125 349.265625 C9.00710703 343.81215343 8.68219076 338.55397108 8.72265625 333.046875 C8.72477867 331.93185608 8.72477867 331.93185608 8.72694397 330.79431152 C8.73248141 328.45137271 8.74502159 326.10853427 8.7578125 323.765625 C8.76283561 322.16406389 8.76739708 320.56250127 8.77148438 318.9609375 C8.78243023 315.06246212 8.79965054 311.1640605 8.8203125 307.265625 C7.88461426 307.13583252 6.94891602 307.00604004 5.98486328 306.87231445 C2.25440099 306.1571317 0.57646435 304.88720156 -2.3046875 302.453125 C-3.13226563 301.76605469 -3.95984375 301.07898438 -4.8125 300.37109375 C-7.02005978 298.40760411 -9.11738119 296.38020175 -11.1796875 294.265625 C-11.19950684 294.85577393 -11.21932617 295.44592285 -11.23974609 296.05395508 C-11.33503409 298.72912596 -11.44469689 301.40351998 -11.5546875 304.078125 C-11.585625 305.00689453 -11.6165625 305.93566406 -11.6484375 306.89257812 C-11.68710938 307.78525391 -11.72578125 308.67792969 -11.765625 309.59765625 C-11.7970459 310.41983643 -11.8284668 311.2420166 -11.86083984 312.08911133 C-12.1796875 314.265625 -12.1796875 314.265625 -14.1796875 317.265625 C-26.89490507 315.97473997 -36.93721859 308.59814619 -46.1796875 300.265625 C-47.24066057 299.33698263 -48.30186778 298.40860772 -49.36328125 297.48046875 C-66.63658402 282.17381438 -81.02919218 263.56892684 -85.1796875 240.265625 C-88.02523942 246.5318936 -90.66537341 252.85947369 -93.1796875 259.265625 C-98.66219225 258.60280059 -100.62253352 256.27645701 -104.0625 252.16796875 C-111.54435507 241.91147739 -116.13437891 230.53575493 -119.1796875 218.265625 C-119.39222168 217.41371582 -119.60475586 216.56180664 -119.82373047 215.68408203 C-124.38246271 196.7624961 -125.83211906 177.62328618 -127.1796875 158.265625 C-127.80617188 159.2040625 -128.43265625 160.1425 -129.078125 161.109375 C-129.9032887 162.32836683 -130.72882903 163.54710376 -131.5546875 164.765625 C-131.9671875 165.38566406 -132.3796875 166.00570312 -132.8046875 166.64453125 C-133.87868418 168.22088121 -135.02457282 169.74771257 -136.1796875 171.265625 C-136.8396875 171.265625 -137.4996875 171.265625 -138.1796875 171.265625 C-138.3240625 171.905 -138.4684375 172.544375 -138.6171875 173.203125 C-139.1796875 175.265625 -139.1796875 175.265625 -140.1796875 176.265625 C-142.51913486 175.97832445 -144.8536018 175.64625721 -147.1796875 175.265625 C-151.35702575 162.44955126 -149.66789007 149.77058414 -145.1796875 137.265625 C-144.65375 135.73615234 -144.65375 135.73615234 -144.1171875 134.17578125 C-139.21307641 120.6724476 -132.93238102 107.36424648 -125.1796875 95.265625 C-124.43153567 94.04683387 -123.68564001 92.82665632 -122.94140625 91.60546875 C-117.39126866 82.53951132 -111.49041536 73.81733579 -105.1796875 65.265625 C-104.76235352 64.69730957 -104.34501953 64.12899414 -103.91503906 63.54345703 C-96.74093058 53.78967494 -96.74093058 53.78967494 -93.1796875 50.265625 C-91.83545411 48.60773715 -90.50350267 46.93986183 -89.1796875 45.265625 C-84.26018428 39.2152015 -79.03091662 33.43671124 -73.1796875 28.265625 C-72.5196875 28.265625 -71.8596875 28.265625 -71.1796875 28.265625 C-70.6846875 26.780625 -70.6846875 26.780625 -70.1796875 25.265625 C-60.01744423 14.22480162 -45.78120975 6.2291547 -32.1796875 0.265625 C-31.52693848 -0.02207764 -30.87418945 -0.30978027 -30.20166016 -0.60620117 C-20.57214743 -4.55854316 -9.51458174 -4.06385525 0 0 Z " fill="#837277" transform="translate(200.1796875,98.734375)"/>
<path d="M0 0 C0.99 0.495 0.99 0.495 2 1 C1.54335978 6.3883546 0.84546365 9.37612157 -2 14 C-2.71923208 17.69523952 -2.71923208 17.69523952 -3 21 C-1.35 21 0.3 21 2 21 C2.33 20.01 2.66 19.02 3 18 C3.66 18 4.32 18 5 18 C5 17.34 5 16.68 5 16 C6.1446875 15.3503125 6.1446875 15.3503125 7.3125 14.6875 C10.31928549 12.79951841 11.39854927 11.11861458 13 8 C19.31667454 8.81039937 22.7720791 12.48075593 27 17 C32.05646045 23.64913412 34.8396853 30.99243351 37 39 C37.30035156 40.05445313 37.60070312 41.10890625 37.91015625 42.1953125 C44.40138466 69.66981414 42.24483825 109.38989483 28 134 C23.69597413 139.97634676 18.19452729 144.16950836 11 146 C4.95312482 146.66524156 -1.48611487 146.70288487 -7 144 C-11.46944922 138.89944799 -14.35608728 133.24579948 -15.375 126.52734375 C-15.25125 125.69332031 -15.1275 124.85929687 -15 124 C-12.6640625 122.33203125 -12.6640625 122.33203125 -9.625 120.8125 C-5.34300023 118.382832 -5.34300023 118.382832 -2.82421875 114.328125 C-2.36741948 111.85931675 -2.06560737 109.50822019 -2 107 C-3.65 107 -5.3 107 -7 107 C-7 107.66 -7 108.32 -7 109 C-15.25937075 116.27823599 -25.41847809 121.67564619 -35 127 C-35.59345215 127.34482422 -36.1869043 127.68964844 -36.79833984 128.04492188 C-43.21229269 131.55557305 -50.21147256 133.18647955 -57.25 135 C-57.91008057 135.17264374 -58.57016113 135.34528748 -59.25024414 135.52316284 C-67.62606977 137.71278288 -76.02228134 139.80131812 -84.5 141.5625 C-85.28665039 141.73072266 -86.07330078 141.89894531 -86.88378906 142.07226562 C-91.20900176 142.91704866 -94.70635427 143.02585523 -99 142 C-98.835 143.19625 -98.67 144.3925 -98.5 145.625 C-98.04572158 149.83375594 -97.83910081 154.01771129 -97.75 158.25 C-97.71132813 159.99023438 -97.71132813 159.99023438 -97.671875 161.765625 C-98.03749795 165.36962265 -98.93101323 167.06934109 -101 170 C-101.46019531 170.72960937 -101.92039062 171.45921875 -102.39453125 172.2109375 C-107.66626469 180.25650313 -112.56221828 187.6525368 -122 191 C-127.52124508 191.9432127 -131.34113527 192.12558293 -136.07421875 188.9140625 C-139.32474344 185.96835619 -141.23636748 182.67161604 -143.125 178.75 C-143.46337891 178.06268799 -143.80175781 177.37537598 -144.15039062 176.66723633 C-147.9416966 168.57601228 -151 159.00036983 -151 150 C-149.35 150 -147.7 150 -146 150 C-145.67 147.03 -145.34 144.06 -145 141 C-145.94689697 141.17200928 -146.89379395 141.34401855 -147.86938477 141.52124023 C-152.63658304 142.19740415 -157.29660582 141.91935621 -162.08984375 141.66015625 C-163.03436905 141.61434921 -163.97889435 141.56854218 -164.95204163 141.52134705 C-167.94754311 141.37464386 -170.94248095 141.21871372 -173.9375 141.0625 C-175.97718321 140.96097731 -178.01689662 140.86005945 -180.05664062 140.75976562 C-185.03813719 140.51350896 -190.01914936 140.25898014 -195 140 C-195.495 143.96 -195.495 143.96 -196 148 C-193.36 148 -190.72 148 -188 148 C-188.5898934 153.07963759 -189.70957047 157.71986711 -191.375 162.5625 C-191.58382812 163.19607422 -191.79265625 163.82964844 -192.0078125 164.48242188 C-194.63793882 172.26855802 -197.92260132 180.0998443 -205.33203125 184.33203125 C-210.65491306 186.64597219 -215.24589023 188.05492012 -221 187 C-223.49314118 184.97608947 -225.24614871 182.67475256 -227 180 C-227.49113281 179.2678125 -227.98226562 178.535625 -228.48828125 177.78125 C-237.99923383 160.28306334 -240.91046662 137.15381655 -242.54296875 117.58203125 C-242.84283957 114.05323641 -243.41533682 110.62676496 -244.03515625 107.140625 C-245.28097968 99.24085464 -245.3013746 91.42035163 -245.26074219 83.44311523 C-245.25000104 80.93774305 -245.2607088 78.43308524 -245.2734375 75.92773438 C-245.27998392 67.09498128 -244.89770713 58.67260804 -243 50 C-237.55294337 49.86714496 -232.7415559 50.27108524 -227.375 51.375 C-225.96918944 51.65327098 -224.56292801 51.92927276 -223.15625 52.203125 C-222.45886719 52.33912109 -221.76148438 52.47511719 -221.04296875 52.61523438 C-205.40644828 55.56016223 -189.7586798 56.18680316 -173.89770508 56.18530273 C-171.33332525 56.1874823 -168.76938208 56.20569822 -166.20507812 56.22460938 C-156.85846445 56.25515423 -147.70617878 55.85477889 -138.42536926 54.70195007 C-133.57362529 54.10474873 -128.8902377 53.91255706 -124 54 C-125.3316745 58.26263274 -126.97959619 62.17703545 -128.9375 66.1875 C-134.27235037 77.58586324 -137.61789794 90.34410674 -136 103 C-133.65418272 108.35641013 -130.65903274 111.50572545 -126 115 C-125.34 110.38 -124.68 105.76 -124 101 C-123.030625 101.928125 -122.06125 102.85625 -121.0625 103.8125 C-117.08897167 107.25676739 -113.03647438 108.69805424 -108 110 C-107.73067479 105.34947128 -107.73067479 105.34947128 -109 101 C-109.88411786 95.12262557 -109.8216097 90.29029781 -106.25 85.375 C-99.78821661 78.07606249 -91.54441456 72.5533552 -82.95703125 68.05078125 C-80.74551098 66.90332307 -80.74551098 66.90332307 -77.8125 64.875 C-74.96177801 62.97451867 -72.06221147 61.53110574 -69 60 C-66.92475242 58.72322863 -64.8740873 57.41508641 -62.83203125 56.0859375 C-61 55 -61 55 -58 54 C-58.11458693 55.43836751 -58.24209116 56.87570966 -58.375 58.3125 C-58.44460938 59.11300781 -58.51421875 59.91351563 -58.5859375 60.73828125 C-59 63 -59 63 -61 66 C-61.32443143 69.11454177 -61.45929053 71.16247021 -59.9375 73.9375 C-56.78137095 75.66828045 -54.38695279 74.8467382 -51 74 C-49.20614008 72.5420814 -49.20614008 72.5420814 -48 71 C-47.34 71 -46.68 71 -46 71 C-45.9175 70.484375 -45.835 69.96875 -45.75 69.4375 C-45 67 -45 67 -43.1015625 63.8671875 C-40.47112261 59.34818134 -39.3126065 54.57596821 -38.109375 49.52148438 C-37.5390625 47.44921875 -37.5390625 47.44921875 -36 44 C-33.0078125 42.62109375 -33.0078125 42.62109375 -30 42 C-28.32665961 41.01120795 -26.65848177 40.01351664 -25 39 C-24.34 39 -23.68 39 -23 39 C-23 38.34 -23 37.68 -23 37 C-18.52941176 33 -18.52941176 33 -16 33 C-15.72929687 32.27296875 -15.45859375 31.5459375 -15.1796875 30.796875 C-14.03204488 28.07597395 -12.69812003 25.74416958 -11.125 23.25 C-8.31006413 18.63815118 -6.08912798 13.97246991 -4 9 C-3.25334589 7.31101691 -2.50342038 5.62347568 -1.75 3.9375 C-1.41484375 3.18339844 -1.0796875 2.42929687 -0.734375 1.65234375 C-0.37085938 0.83443359 -0.37085938 0.83443359 0 0 Z " fill="#FDFDFD" transform="translate(458,337)"/>
<path d="M0 0 C0.99 0 1.98 0 3 0 C7.94112117 48.65777831 7.94112117 48.65777831 4 64 C4.85464844 64.37125 4.85464844 64.37125 5.7265625 64.75 C16.58467833 70.72009805 22.41036563 82.42987325 26.0612793 93.71020508 C27.58762203 99.05935159 28.48139531 104.43397432 29.25 109.9375 C29.50148804 111.73755493 29.50148804 111.73755493 29.75805664 113.57397461 C32.29150668 133.42040656 32.20878182 153.41092353 28 173 C27.77521973 174.1125415 27.77521973 174.1125415 27.54589844 175.24755859 C24.78143005 188.8556689 21.65367125 202.88863996 9.87890625 211.5625 C2.67815905 216.21325782 -3.49754517 216.56545951 -12 216 C-18.05003469 214.63524972 -23.10073471 210.92312798 -26.44921875 205.76953125 C-29.4967393 200.13729413 -30.69140496 195.37763086 -31 189 C-32.64609493 189.89535257 -34.29185868 190.79131399 -35.9375 191.6875 C-37.44376953 192.50734375 -37.44376953 192.50734375 -38.98046875 193.34375 C-42.25089044 195.13761649 -45.49774388 196.97016431 -48.734375 198.82421875 C-55.69865161 202.43843816 -62.54729737 204.23868439 -70.1875 205.9375 C-71.32775635 206.19547363 -72.4680127 206.45344727 -73.64282227 206.71923828 C-80.89234259 208.34553536 -88.15502552 209.90329225 -95.4375 211.375 C-96.26467529 211.54249756 -97.09185059 211.70999512 -97.9440918 211.88256836 C-101.01050679 212.48648528 -103.8665997 213 -107 213 C-107.01417969 214.01578125 -107.02835938 215.0315625 -107.04296875 216.078125 C-107.43292171 229.6273379 -111.1641812 241.46307158 -120.4375 251.6875 C-121.283125 252.450625 -122.12875 253.21375 -123 254 C-123.48597656 254.4434375 -123.97195313 254.886875 -124.47265625 255.34375 C-129.40512152 259.68331023 -133.23433343 261.47600595 -139.890625 261.23828125 C-146.8491899 260.45222114 -151.05102455 257.73309432 -155.40625 252.2890625 C-163.28377905 240.97476832 -168 225.78995172 -168 212 C-169.0209375 212.01740234 -169.0209375 212.01740234 -170.0625 212.03515625 C-178.74728887 212.1159987 -187.34308733 211.61521207 -196 211 C-196.16822266 212.93939453 -196.16822266 212.93939453 -196.33984375 214.91796875 C-197.82407156 228.12114309 -202.63123813 243.77243293 -212.9765625 252.70703125 C-218.73975433 256.38968858 -225.26407614 257.86915147 -232 257 C-240.87073793 253.27880061 -244.55745906 243.48536491 -248 235.1875 C-254.08640531 219.0486057 -256.82222944 201.1431559 -258.63671875 184.04296875 C-259.09216659 180.22798091 -260.0070423 176.7070421 -261 173 C-261.81320547 167.54652843 -262.13812174 162.28834608 -262.09765625 156.78125 C-262.0962413 156.03790405 -262.09482635 155.29455811 -262.09336853 154.52868652 C-262.08783109 152.18574771 -262.07529091 149.84290927 -262.0625 147.5 C-262.05747689 145.89843889 -262.05291542 144.29687627 -262.04882812 142.6953125 C-262.03788227 138.79683712 -262.02066196 134.8984355 -262 131 C-262.93642334 130.86875732 -263.87284668 130.73751465 -264.83764648 130.60229492 C-268.52344052 129.90030667 -270.19792605 128.69586185 -273.0625 126.3125 C-274.28646484 125.31669922 -274.28646484 125.31669922 -275.53515625 124.30078125 C-278.31830905 121.70287792 -280.61843653 118.96740262 -283 116 C-283.03758423 116.93851807 -283.03758423 116.93851807 -283.07592773 117.89599609 C-283.19175273 120.72254619 -283.31453985 123.54875169 -283.4375 126.375 C-283.49647461 127.85226562 -283.49647461 127.85226562 -283.55664062 129.359375 C-283.59853516 130.30039062 -283.64042969 131.24140625 -283.68359375 132.2109375 C-283.72025146 133.08024902 -283.75690918 133.94956055 -283.79467773 134.84521484 C-284 137 -284 137 -285 139 C-286.32 139 -287.64 139 -289 139 C-289.33 138.01 -289.66 137.02 -290 136 C-289.01 136 -288.02 136 -287 136 C-287 124.45 -287 112.9 -287 101 C-286.34 101 -285.68 101 -285 101 C-284.814375 101.99 -284.62875 102.98 -284.4375 104 C-282.01351773 112.34927225 -273.95061471 118.35278668 -267 123 C-265.515 123.495 -265.515 123.495 -264 124 C-264 123.34 -264 122.68 -264 122 C-263.01 122 -262.02 122 -261 122 C-261 117.71 -261 113.42 -261 109 C-261.99 108.896875 -262.98 108.79375 -264 108.6875 C-268.28297163 108.09191294 -271.99996371 106.61404973 -276 105 C-276 104.01 -276 103.02 -276 102 C-276.66 102 -277.32 102 -278 102 C-278.33 100.68 -278.66 99.36 -279 98 C-269.50382972 98.56201824 -260.03934743 99.97379501 -250.99609375 103.0078125 C-218.4277079 113.79317105 -165.8367198 115.94557327 -133 105 C-133.51949219 104.75765625 -134.03898438 104.5153125 -134.57421875 104.265625 C-143.1059821 100.16533208 -143.1059821 100.16533208 -146 97 C-146.3125 93.25 -146.3125 93.25 -146 90 C-146.92619141 90.10441406 -146.92619141 90.10441406 -147.87109375 90.2109375 C-155.2782218 90.68445254 -159.45453617 88.84585058 -165 84 C-171.01063965 78.22278324 -175.0198478 72.53638749 -175.3984375 64.0390625 C-175.40632972 62.23437535 -175.39820142 60.42955526 -175.375 58.625 C-175.38660156 57.73039062 -175.39820313 56.83578125 -175.41015625 55.9140625 C-175.37802135 48.54445911 -174.12637736 42.18956604 -170 36 C-169.34 36 -168.68 36 -168 36 C-167.67 34.68 -167.34 33.36 -167 32 C-166.34 32 -165.68 32 -165 32 C-165 31.34 -165 30.68 -165 30 C-163.68 29.67 -162.36 29.34 -161 29 C-161 29.66 -161 30.32 -161 31 C-160.34 31 -159.68 31 -159 31 C-158.67 30.34 -158.34 29.68 -158 29 C-158 29.99 -158 30.98 -158 32 C-154.32589215 33.17571451 -150.83070817 33.07366746 -147 33 C-146.195625 31.2984375 -146.195625 31.2984375 -145.375 29.5625 C-143.82590048 26.92527867 -143.29015922 26.13446403 -140.4375 24.8125 C-133.97922032 25.1647698 -128.2126632 27.38659975 -123 31.1875 C-116.56147711 40.24167281 -116.80408186 51.67716791 -118.5390625 62.30078125 C-119.81483904 67.48099476 -121.36100513 71.00884433 -125 75 C-125.4021875 76.2065625 -125.4021875 76.2065625 -125.8125 77.4375 C-127.59472798 81.28336039 -130.70171234 83.43368527 -134 86 C-121.16604852 78.95130126 -114.59344598 62.35443733 -110.51953125 48.87109375 C-110.34808594 48.25363281 -110.17664063 47.63617188 -110 47 C-109.79761719 46.31035156 -109.59523438 45.62070312 -109.38671875 44.91015625 C-108.91138104 43.27719337 -108.45339334 41.63919132 -108 40 C-107.67 40 -107.34 40 -107 40 C-106.824148 44.13252191 -107.05885901 47.60370021 -108.0625 51.625 C-108.74296712 54.38881507 -109.05552374 55.74705854 -108.4375 58.5625 C-107.19527577 65.48346356 -113.44832937 74.35551699 -117 80 C-119.85344489 83.79971551 -122.84738904 87.44505583 -126 91 C-126.48082031 91.556875 -126.96164062 92.11375 -127.45703125 92.6875 C-129.45607371 94.38795131 -131.54041512 95.13582153 -134 96 C-131.47909222 96.0272367 -128.95848543 96.04695207 -126.4375 96.0625 C-125.73302734 96.07087891 -125.02855469 96.07925781 -124.30273438 96.08789062 C-120.81326608 96.10397112 -117.48521158 95.982887 -114.03515625 95.43359375 C-113.03355469 95.29050781 -112.03195312 95.14742188 -111 95 C-110 96 -110 96 -109.9375 99.5625 C-109.958125 100.696875 -109.97875 101.83125 -110 103 C-110.85722656 103.1959375 -111.71445312 103.391875 -112.59765625 103.59375 C-120.62480046 105.69329618 -125.42840233 107.95973958 -130 115 C-130.33 115.66 -130.66 116.32 -131 117 C-131.66 117 -132.32 117 -133 117 C-133.185625 118.216875 -133.37125 119.43375 -133.5625 120.6875 C-134.7904253 126.32883797 -137.53165694 130.93009532 -140.3125 135.94140625 C-144.91983458 144.29220018 -147.02987977 152.86042287 -144.3203125 162.390625 C-143.46836433 164.48017423 -143.46836433 164.48017423 -142 167 C-140.68 162.38 -139.36 157.76 -138 153 C-136.68 152.67 -135.36 152.34 -134 152 C-133.690625 153.093125 -133.38125 154.18625 -133.0625 155.3125 C-132.41662103 157.55407994 -131.7376883 159.7869351 -131 162 C-129.35 162.33 -127.7 162.66 -126 163 C-126.03480469 162.39414062 -126.06960938 161.78828125 -126.10546875 161.1640625 C-126.39751608 152.12450239 -125.13643424 145.09476066 -119.25 138 C-109.93793109 128.38754177 -97.59885873 122.04151805 -86.10546875 115.41015625 C-83.4197562 113.85268248 -80.78348609 112.2433736 -78.17578125 110.55859375 C-77.28850342 109.98939209 -77.28850342 109.98939209 -76.38330078 109.40869141 C-74.79505419 108.38202466 -73.21554497 107.34187664 -71.63671875 106.30078125 C-69 105 -69 105 -66.64453125 105.29296875 C-66.10183594 105.52628906 -65.55914062 105.75960937 -65 106 C-65.14120714 107.93784265 -65.28812873 109.87526955 -65.4375 111.8125 C-65.55931641 113.43091797 -65.55931641 113.43091797 -65.68359375 115.08203125 C-66 118 -66 118 -67 121 C-67.03954234 123.33299825 -67.04401732 125.66708189 -67 128 C-55.7913188 118.25628321 -51.9269239 101.10467441 -50 87 C-49.89848633 86.29762207 -49.79697266 85.59524414 -49.69238281 84.87158203 C-47.97988831 72.46545072 -47.81683087 60.06299725 -47.8125 47.5625 C-47.81150299 46.78684692 -47.81050598 46.01119385 -47.80947876 45.21203613 C-47.80980445 42.97589701 -47.81887132 40.74000364 -47.83203125 38.50390625 C-47.83952393 37.20267822 -47.8470166 35.9014502 -47.85473633 34.56079102 C-47.98857633 31.28002387 -48.40620398 28.22375661 -49 25 C-49.0620775 23.37605252 -49.08712041 21.74994703 -49.0625 20.125 C-49.05347656 19.34382813 -49.04445313 18.56265625 -49.03515625 17.7578125 C-49.01775391 16.88769531 -49.01775391 16.88769531 -49 16 C-47.68 16.33 -46.36 16.66 -45 17 C-44.94054199 18.07145264 -44.94054199 18.07145264 -44.87988281 19.16455078 C-43.819499 38.42973515 -43.819499 38.42973515 -39 57 C-38.4898683 58.47836843 -37.98221781 59.95759451 -37.4765625 61.4375 C-34.81632669 69.18626 -34.81632669 69.18626 -31.8203125 76.80859375 C-31 79 -31 79 -31 82 C-27.70062081 79.24368633 -26.00722845 75.58957116 -24.125 71.8125 C-23.77421387 71.10996094 -23.42342773 70.40742188 -23.06201172 69.68359375 C-19.51769902 62.35705127 -17.12707986 54.8487598 -15 47 C-14.6390625 45.7315625 -14.278125 44.463125 -13.90625 43.15625 C-12.75094395 38.47128477 -12.55220468 33.80667691 -12.375 29 C-12.33632813 28.12988281 -12.29765625 27.25976562 -12.2578125 26.36328125 C-12.16459113 24.24249514 -12.08125864 22.12127815 -12 20 C-11.01 20.33 -10.02 20.66 -9 21 C-8.97494385 21.76143311 -8.9498877 22.52286621 -8.92407227 23.30737305 C-8.80780952 26.76757376 -8.68522022 30.22752254 -8.5625 33.6875 C-8.52318359 34.88568359 -8.48386719 36.08386719 -8.44335938 37.31835938 C-8.40146484 38.47529297 -8.35957031 39.63222656 -8.31640625 40.82421875 C-8.27974854 41.88729248 -8.24309082 42.95036621 -8.20532227 44.0456543 C-8.01473996 46.78790934 -7.57428371 49.31701828 -7 52 C-6.78301513 54.43505237 -6.59709255 56.87301384 -6.4375 59.3125 C-6.31181641 61.19388672 -6.31181641 61.19388672 -6.18359375 63.11328125 C-6.12300781 64.06589844 -6.06242187 65.01851563 -6 66 C-5.01330241 64.10807525 -4.0359398 62.21128022 -3.0625 60.3125 C-2.51722656 59.25675781 -1.97195313 58.20101562 -1.41015625 57.11328125 C1.17484802 51.40622196 1.15914651 46.15978629 1.125 40 C1.12306641 39.15131348 1.12113281 38.30262695 1.11914062 37.42822266 C1.08008041 31.70264608 0.7464247 26.05790554 0.22265625 20.35546875 C-0.22684293 13.58143718 -0.07313585 6.78538146 0 0 Z M-13 62 C-13.43699219 63.09054687 -13.43699219 63.09054687 -13.8828125 64.203125 C-18.05053855 74.42584928 -22.4243673 84.10355576 -29 93 C-29 93.66 -29 94.32 -29 95 C-29.598125 95.28875 -30.19625 95.5775 -30.8125 95.875 C-33.19327792 97.04742026 -33.19327792 97.04742026 -36 99 C-36 99.66 -36 100.32 -36 101 C-37.1446875 101.433125 -37.1446875 101.433125 -38.3125 101.875 C-41.15029308 102.96269013 -41.15029308 102.96269013 -44 105 C-45.65549531 105.38499891 -47.3222433 105.72793135 -49 106 C-49.31453125 107.07378906 -49.6290625 108.14757812 -49.953125 109.25390625 C-50.38496401 110.69024034 -50.81728132 112.12643068 -51.25 113.5625 C-51.45496094 114.26697266 -51.65992188 114.97144531 -51.87109375 115.69726562 C-53.35972572 120.5917071 -55.36908751 124.61514584 -58 129 C-58.76040572 131.26985894 -58.76040572 131.26985894 -59 133 C-59.66 133 -60.32 133 -61 133 C-61.391875 133.474375 -61.78375 133.94875 -62.1875 134.4375 C-64.9533338 136.82183948 -67.42522631 136.87232951 -71 137 C-72.9375 135.9375 -72.9375 135.9375 -74 134 C-74.42478586 129.92205575 -74.31282587 128.46923881 -72 125 C-71.54605448 122.72087062 -71.54605448 122.72087062 -71.375 120.3125 C-71.30023438 119.50425781 -71.22546875 118.69601562 -71.1484375 117.86328125 C-71.07496094 116.94095703 -71.07496094 116.94095703 -71 116 C-72.58583248 116.76567866 -74.16856494 117.53777965 -75.75 118.3125 C-76.63171875 118.74175781 -77.5134375 119.17101562 -78.421875 119.61328125 C-80.82281137 120.90469399 -82.83449818 122.35705281 -85 124 C-86.25457148 124.65703331 -87.52602873 125.2828564 -88.8125 125.875 C-92.25799792 127.54670455 -95.22809901 129.50597669 -98.29296875 131.7890625 C-100 133 -100 133 -103.375 134.875 C-110.54813302 138.90485001 -118.50073681 144.30696338 -122 152 C-122.7373776 157.20501836 -122.307769 161.9404347 -121 167 C-120.96213099 168.66623639 -120.95372155 170.33397597 -121 172 C-127.76099177 170.25226063 -131.95114649 167.83400868 -137 163 C-137.66 167.62 -138.32 172.24 -139 177 C-143.42882617 173.67838038 -147.28466874 170.44641902 -149 165 C-150.89287261 149.30404509 -145.21389543 133.66471279 -137.953125 119.99609375 C-136.85636899 118.06786165 -136.85636899 118.06786165 -137 116 C-142.68942218 115.89862587 -148.11359379 116.28694245 -153.75390625 116.984375 C-163.83112123 118.12940471 -173.80465629 118.31338784 -183.9375 118.25 C-184.81152466 118.24723053 -185.68554932 118.24446106 -186.58605957 118.24160767 C-199.15963333 118.19494848 -211.54558166 117.85030889 -224 116 C-225.82809473 115.74457491 -227.65622131 115.4893777 -229.484375 115.234375 C-242.55562991 113.36558331 -242.55562991 113.36558331 -246.12011719 112.46337891 C-248.22732827 111.94396506 -250.08359696 111.90139328 -252.25 111.9375 C-253.4875 111.958125 -254.725 111.97875 -256 112 C-258.20611783 122.20219003 -258.35529812 132.18205766 -258.3125 142.5625 C-258.31167419 143.40760132 -258.31084839 144.25270264 -258.30999756 145.12341309 C-258.28402302 156.65774736 -257.71564809 167.67311618 -255.3671875 178.99169922 C-254.71265848 182.57159001 -254.45397387 186.191023 -254.125 189.8125 C-252.31231701 207.92330616 -248.83401729 236.53191458 -234 249 C-226.59265656 249.90967376 -220.01537509 248.00955135 -214.01953125 243.515625 C-206.54702853 236.05961787 -203.55134711 223.97780348 -201 214 C-201 212.68 -201 211.36 -201 210 C-203.64 210 -206.28 210 -209 210 C-208.505 206.04 -208.505 206.04 -208 202 C-207.41784225 202.02727676 -206.83568451 202.05455353 -206.23588562 202.08265686 C-200.18562989 202.3650309 -194.13505354 202.63952965 -188.08422852 202.90942383 C-185.82502162 203.01123672 -183.56590477 203.11506845 -181.30688477 203.22094727 C-178.06287758 203.37264288 -174.81861757 203.5171142 -171.57421875 203.66015625 C-170.56163498 203.70906509 -169.54905121 203.75797394 -168.50578308 203.80836487 C-167.56503433 203.8484819 -166.62428558 203.88859894 -165.6550293 203.92993164 C-164.82674118 203.96768204 -163.99845306 204.00543243 -163.14506531 204.04432678 C-160.81230323 204.10219016 -160.81230323 204.10219016 -158 203 C-158.33 205.97 -158.66 208.94 -159 212 C-160.65 212 -162.3 212 -164 212 C-162.34154291 225.52951837 -159.22419727 241.01872701 -149.3125 251.1875 C-144.46359953 253.84067196 -140.40293357 253.91052223 -135 253 C-124.22799269 249.380467 -118.05790366 239.85746766 -113.12890625 230.1875 C-112 228 -112 228 -111 227 C-110.63936767 219.27822535 -110.94460946 211.65158142 -112 204 C-111.13246094 204.18570557 -110.26492188 204.37141113 -109.37109375 204.56274414 C-105.87632825 205.01604114 -103.48755012 204.74298169 -100.0625 203.99609375 C-98.93126709 203.75342773 -97.80003418 203.51076172 -96.63452148 203.26074219 C-95.43512939 202.98907227 -94.2357373 202.71740234 -93 202.4375 C-91.75484619 202.15938477 -90.50969238 201.88126953 -89.22680664 201.59472656 C-85.48049961 200.74639759 -81.73999524 199.87568399 -78 199 C-76.43934814 198.64542725 -76.43934814 198.64542725 -74.84716797 198.28369141 C-54.70321855 193.64859126 -35.70753224 184.68075389 -20 171 C-20 170.34 -20 169.68 -20 169 C-18.35 169 -16.7 169 -15 169 C-15.82879339 177.71078769 -15.82879339 177.71078769 -18.55078125 180.70703125 C-20.31849971 181.95995376 -22.07089252 183.01611222 -24 184 C-24.804375 184.433125 -25.60875 184.86625 -26.4375 185.3125 C-26.953125 185.539375 -27.46875 185.76625 -28 186 C-27.59171583 193.34911504 -25.37457513 200.08339467 -20.4921875 205.75 C-16.56630947 209.03869363 -9.70531361 208.34257581 -4.8046875 208.26953125 C2.42532336 207.57472519 8.249235 203.97412633 13.08984375 198.65234375 C29.26643869 176.19036427 30.15744447 137.87296723 26.265625 111.21875 C25.46410646 106.71961115 24.35620741 102.36176658 23 98 C22.43925781 96.16115234 22.43925781 96.16115234 21.8671875 94.28515625 C18.59960356 84.83945832 12.85858637 75.2432683 4 70 C1.19519721 69.64220347 1.19519721 69.64220347 -1 71 C-1.70151152 72.3153341 -2.36525925 73.65117592 -3 75 C-4.65261839 76.02304948 -6.31791365 77.02616054 -8 78 C-8 78.66 -8 79.32 -8 80 C-8.99 80.33 -9.98 80.66 -11 81 C-11 81.66 -11 82.32 -11 83 C-12.65 83 -14.3 83 -16 83 C-15.37317784 76.60641399 -15.37317784 76.60641399 -13.5 73.5625 C-11.43453887 70.03400391 -11.34385087 67.05744024 -11 63 C-11.99 62.505 -11.99 62.505 -13 62 Z " fill="#7C6F71" transform="translate(471,275)"/>
<path d="M0 0 C1.98436237 3.47694798 2.75275481 6.92000395 3.625 10.8125 C7.33072121 26.2155826 12.78983191 41.00245126 19.5625 55.3125 C19.99699463 56.23619385 20.43148926 57.1598877 20.87915039 58.11157227 C24.01256704 64.53289029 27.78087389 70.24547701 32 76 C32.61166016 76.8647998 33.22332031 77.72959961 33.85351562 78.62060547 C37.40919572 83.62407583 40.09692534 86.19293633 46 88 C45.67 83.38 45.34 78.76 45 74 C50.01466023 78.25155976 54.91045451 82.61389325 59.765625 87.046875 C63.13730519 89.99414789 65.6213519 91.28994896 70 92 C70 89.03 70 86.06 70 83 C72.31 83.99 74.62 84.98 77 86 C77 74.78 77 63.56 77 52 C86 49.75 86 49.75 90 49.875 C90.763125 49.89304687 91.52625 49.91109375 92.3125 49.9296875 C92.869375 49.95289063 93.42625 49.97609375 94 50 C93.55269531 50.64324219 93.10539063 51.28648437 92.64453125 51.94921875 C85.23039252 63.03090585 80.82254731 73.95570548 80.75 87.25 C80.729375 88.17941406 80.70875 89.10882813 80.6875 90.06640625 C80.63697758 98.99624392 82.93939613 104.54806801 89.0546875 111.13671875 C95.1737736 116.99777109 100.56383563 118.80984056 109 119 C108.979375 120.03125 108.95875 121.0625 108.9375 122.125 C109.31112899 124.91589536 109.8003885 125.82099616 111.9296875 127.73046875 C115.49365473 130.09670929 119.15633817 132.12654469 123 134 C92.36567599 150.86293065 30.09421255 140.63429689 -1.59375 132.0234375 C-2.7178125 131.68570313 -3.841875 131.34796875 -5 131 C-6.24136719 130.63261719 -7.48273438 130.26523437 -8.76171875 129.88671875 C-26.49424707 124.51723032 -43.12193371 118.78796363 -53 102 C-53.45375 101.24332031 -53.9075 100.48664063 -54.375 99.70703125 C-58.73018973 90.92104086 -58.70008836 79.14089999 -55.89453125 69.85546875 C-53.15330945 62.12161717 -49.00191388 55.47443993 -44 49 C-43.05866032 47.62762583 -42.12073698 46.25289695 -41.1875 44.875 C-40.465625 43.92625 -39.74375 42.9775 -39 42 C-38.34 42 -37.68 42 -37 42 C-36.5978125 41.1028125 -36.5978125 41.1028125 -36.1875 40.1875 C-34.95023624 37.90832992 -34.0354186 36.59925747 -32 35 C-29.51953125 34.70703125 -29.51953125 34.70703125 -26.8125 34.8125 C-25.91144531 34.83957031 -25.01039063 34.86664063 -24.08203125 34.89453125 C-23.05142578 34.94673828 -23.05142578 34.94673828 -22 35 C-22.40992188 35.53109375 -22.81984375 36.0621875 -23.2421875 36.609375 C-23.78101563 37.31578125 -24.31984375 38.0221875 -24.875 38.75 C-25.40867188 39.44609375 -25.94234375 40.1421875 -26.4921875 40.859375 C-27.89238914 42.84722603 -28.97855265 44.79843386 -30 47 C-30.66 47 -31.32 47 -32 47 C-32.2475 47.66 -32.495 48.32 -32.75 49 C-33.71775287 51.32260688 -34.75257391 53.4185859 -35.9375 55.625 C-40.7059692 65.2155167 -42.25207924 75.36960171 -41 86 C-39.56765303 88.76406696 -39.56765303 88.76406696 -38 91 C-38 91.66 -38 92.32 -38 93 C-37.443125 93.226875 -36.88625 93.45375 -36.3125 93.6875 C-33.37495279 95.35475652 -31.38188562 97.61811438 -29 100 C-24.52769359 102.7247245 -20.09424996 102.65584655 -15 102 C-12.71228313 101.12884953 -10.69944915 100.1177077 -8.59375 98.875 C-7 98 -7 98 -5 98 C-5 97.34 -5 96.68 -5 96 C-4.0925 95.360625 -3.185 94.72125 -2.25 94.0625 C4.46541819 88.67749485 5.7943507 78.09993533 7 70 C7.35015392 65.62748683 7.50265134 61.25916047 7.625 56.875 C7.66367188 55.72773438 7.70234375 54.58046875 7.7421875 53.3984375 C7.83549846 50.59910883 7.92128645 47.79977064 8 45 C8.66 45 9.32 45 10 45 C10 44.01 10 43.02 10 42 C9.34 41.67 8.68 41.34 8 41 C8 40.34 8 39.68 8 39 C4.97601304 37.73187644 1.92921103 36.63627326 -1.1875 35.625 C-4.55880755 34.52736498 -7.79956171 33.2604938 -11.0625 31.875 C-15.43410495 30.08257356 -19.29835414 29.34827006 -24 29 C-24 28.01 -24 27.02 -24 26 C-23.01 26 -22.02 26 -21 26 C-20.79375 25.443125 -20.5875 24.88625 -20.375 24.3125 C-18.86810858 21.77818261 -17.08812747 20.4318015 -14.7890625 18.63671875 C-11.67909017 15.79156939 -9.26385625 12.36965413 -6.734375 9.01171875 C-6.16203125 8.34785156 -5.5896875 7.68398437 -5 7 C-4.34 7 -3.68 7 -3 7 C-2.814375 5.824375 -2.814375 5.824375 -2.625 4.625 C-2 2 -2 2 0 0 Z M-10 33 C-9.01 33.33 -8.02 33.66 -7 34 C-5.53295446 37.58611131 -4.67215325 41.1911316 -4 45 C-9.2 48.86976744 -9.2 48.86976744 -12.6875 49.4375 C-15 49 -15 49 -16.8125 47.9375 C-18.60842137 45.00731249 -18.18977574 42.3527047 -18 39 C-15.09399739 37.74335022 -13.20395416 37 -10 37 C-10 35.68 -10 34.36 -10 33 Z " fill="#FAF9F9" transform="translate(216,246)"/>
<path d="M0 0 C2.75 2.1875 2.75 2.1875 4.75 5.1875 C4.97705078 7.54760742 4.97705078 7.54760742 4.9453125 10.29296875 C4.93564453 11.76733398 4.93564453 11.76733398 4.92578125 13.27148438 C4.90064453 14.80772461 4.90064453 14.80772461 4.875 16.375 C4.86597656 17.41076172 4.85695312 18.44652344 4.84765625 19.51367188 C4.8240786 22.07184685 4.7911703 24.62955748 4.75 27.1875 C2.44 27.5175 0.13 27.8475 -2.25 28.1875 C-2.79269531 27.09050781 -3.33539063 25.99351562 -3.89453125 24.86328125 C-4.6170797 23.40880061 -5.33974196 21.9543765 -6.0625 20.5 C-6.41892578 19.77876953 -6.77535156 19.05753906 -7.14257812 18.31445312 C-7.84388328 16.90540882 -8.5535044 15.50046838 -9.27197266 14.10009766 C-10.10621636 12.4686785 -10.90637528 10.81990406 -11.69921875 9.16796875 C-13.10116994 6.95621367 -13.10116994 6.95621367 -15.6953125 6.59375 C-20.09546481 7.61641537 -21.56371187 10.82482454 -23.921875 14.44921875 C-25.97964613 18.69185863 -25.61809549 20.703187 -24.25 25.1875 C-23.27308143 26.86779994 -22.27611949 28.53678604 -21.25 30.1875 C-20.6875 32.75 -20.6875 32.75 -21.25 35.1875 C-22.64476304 36.12795666 -24.04412653 37.06226241 -25.46508789 37.96264648 C-28.84725539 40.28357855 -31.76331143 43.13785657 -34.75 45.9375 C-35.38808594 46.52015625 -36.02617187 47.1028125 -36.68359375 47.703125 C-41.12294777 51.84289072 -44.76140722 56.22938896 -48.25 61.1875 C-48.70149414 61.8165625 -49.15298828 62.445625 -49.61816406 63.09375 C-60.25664198 78.01083031 -70.16988903 93.81575437 -76.25 111.1875 C-76.74748157 112.50095664 -77.2475364 113.81344116 -77.75 115.125 C-78.51344688 117.13878589 -79.23494454 119.13779769 -79.859375 121.19921875 C-85.17567229 138.73651651 -96.2525686 155.39829242 -106.84765625 170.1640625 C-111.05848951 176.23986091 -112.90302094 180.74306128 -112.25 188.1875 C-110.25383446 190.18366554 -106.43298037 189.59733427 -103.6875 189.75 C-102.97658203 189.79318359 -102.26566406 189.83636719 -101.53320312 189.88085938 C-99.77238088 189.98721777 -98.0112168 190.08788846 -96.25 190.1875 C-96.394375 190.88488281 -96.53875 191.58226562 -96.6875 192.30078125 C-98.21343067 200.97951192 -98.44218855 209.45134652 -98.4375 218.25 C-98.43814453 219.43956299 -98.43878906 220.62912598 -98.43945312 221.85473633 C-98.408467 226.80230487 -98.25944972 231.3400435 -97.25 236.1875 C-97.21175377 238.52051986 -97.20425716 240.85461508 -97.25 243.1875 C-101.52247687 239.32192568 -104.16453787 235.34594796 -106.8125 230.25 C-107.39837891 229.12609863 -107.39837891 229.12609863 -107.99609375 227.97949219 C-113.00238686 218.07190372 -115.470824 208.41030174 -116.0390625 197.2890625 C-116.30205828 193.42205041 -116.97800549 189.71159804 -117.75 185.91796875 C-118.98289852 179.185187 -119.39106043 172.70177957 -119.34765625 165.875 C-119.3462413 165.02067383 -119.34482635 164.16634766 -119.34336853 163.28613281 C-119.33781962 160.58655127 -119.32527697 157.88705601 -119.3125 155.1875 C-119.30747839 153.34505329 -119.30291664 151.50260527 -119.29882812 149.66015625 C-119.28786699 145.16923814 -119.27063825 140.67838364 -119.25 136.1875 C-123.10762966 136.72415091 -123.992204 136.89323125 -126.6796875 139.9609375 C-127.50991875 141.15104722 -128.32432752 142.35230636 -129.125 143.5625 C-129.55554688 144.18721191 -129.98609375 144.81192383 -130.4296875 145.45556641 C-133.73786799 150.29353423 -136.86181246 155.24662944 -139.875 160.2734375 C-140.32875 160.90507812 -140.7825 161.53671875 -141.25 162.1875 C-141.91 162.1875 -142.57 162.1875 -143.25 162.1875 C-144.1783837 152.44978652 -141.47086309 144.20500808 -138.25 135.1875 C-137.86585938 134.08148438 -137.48171875 132.97546875 -137.0859375 131.8359375 C-130.25705306 113.11457404 -120.1268801 94.48542336 -108.06640625 78.6484375 C-106.1955082 76.11367239 -104.56984061 73.50605496 -102.9375 70.8125 C-99.05998554 64.60670631 -94.35718315 59.24657088 -89.57373047 53.73779297 C-87.60999923 51.43796019 -85.74365099 49.06481969 -83.875 46.6875 C-81.18061734 43.29071209 -78.40520006 40.1721487 -75.25 37.1875 C-74.5075 36.445 -73.765 35.7025 -73 34.9375 C-72.0925 34.03 -71.185 33.1225 -70.25 32.1875 C-69.61320312 31.5275 -68.97640625 30.8675 -68.3203125 30.1875 C-59.83714669 21.49300978 -50.8985573 14.06525417 -40.25 8.1875 C-39.19425781 7.58808594 -38.13851562 6.98867187 -37.05078125 6.37109375 C-26.24452452 0.35925058 -12.26676525 -6.67229909 0 0 Z " fill="#FCFAFB" transform="translate(198.25,104.8125)"/>
<path d="M0 0 C5.44705663 -0.13285504 10.2584441 0.27108524 15.625 1.375 C17.03081056 1.65327098 18.43707199 1.92927276 19.84375 2.203125 C20.88982422 2.40711914 20.88982422 2.40711914 21.95703125 2.61523438 C37.59355172 5.56016223 53.2413202 6.18680316 69.10229492 6.18530273 C71.66667475 6.1874823 74.23061792 6.20569822 76.79492188 6.22460938 C86.14153555 6.25515423 95.29382122 5.85477889 104.57463074 4.70195007 C109.42637471 4.10474873 114.1097623 3.91255706 119 4 C117.6683255 8.26263274 116.02040381 12.17703545 114.0625 16.1875 C111.32653791 22.00727267 109.43022936 27.73961009 108 34 C107.67 34 107.34 34 107 34 C107 32.02 107 30.04 107 28 C106.09048584 28.21148682 105.18097168 28.42297363 104.24389648 28.64086914 C95.09768687 30.63748195 86.45998286 31.51228103 77.0625 31.4375 C76.38789734 31.43445862 75.71329468 31.43141724 75.01824951 31.42828369 C53.05599097 31.28431294 30.43786153 29.51577564 10 21 C10 20.01 10 19.02 10 18 C9.113125 17.731875 8.22625 17.46375 7.3125 17.1875 C4.22224509 16.07967277 1.77377061 14.72474663 -1 13 C-0.93941406 14.23041016 -0.87882813 15.46082031 -0.81640625 16.72851562 C-0.59081065 21.32054347 -0.3677837 25.91269318 -0.14550781 30.50488281 C-0.04919679 32.48733853 0.04779835 34.46976115 0.14550781 36.45214844 C0.28633306 39.31176325 0.42464711 42.17149054 0.5625 45.03125 C0.60624756 45.90865845 0.64999512 46.78606689 0.69506836 47.69006348 C0.93859729 52.80049597 1.04142725 57.88373513 1 63 C0.67 63 0.34 63 0 63 C-1.95417151 53.09226143 -2.3120078 43.50793543 -2.26074219 33.44311523 C-2.25000104 30.93774305 -2.2607088 28.43308524 -2.2734375 25.92773438 C-2.27998392 17.09498128 -1.89770713 8.67260804 0 0 Z " fill="#D4C9C9" transform="translate(215,387)"/>
<path d="M0 0 C14.71630068 0.49054336 27.63616911 10.30169599 37.625 20.5625 C39.82970778 23.19811973 39.82970778 23.19811973 43 24 C44.6626027 27.3252054 44.34959127 30.6404784 43.4375 34.1875 C41.10684974 37.12614598 38.55240031 38.18335625 35 39 C26.11862845 39.99040749 18.23311345 39.65546579 11 34 C3.86257539 26.70501634 -0.29815075 14.16437327 -0.3125 4.0625 C-0.2353308 2.70652693 -0.14300654 1.35061733 0 0 Z " fill="#6B6467" transform="translate(158,38)"/>
<path d="M0 0 C0.69275528 -0.00095673 1.38551056 -0.00191345 2.09925842 -0.00289917 C3.56088349 -0.00357802 5.02251162 -0.00174431 6.48413086 0.00244141 C8.71149534 0.00778572 10.93865745 0.00249067 13.16601562 -0.00390625 C14.58984419 -0.00324526 16.01367263 -0.00196366 17.4375 0 C19.3709729 0.00169189 19.3709729 0.00169189 21.34350586 0.00341797 C24.29901337 0.11453516 26.91872034 0.44217942 29.78515625 1.1328125 C28.60788604 8.37755228 25.00158089 15.91638786 19.78515625 21.1328125 C18.79515625 21.1328125 17.80515625 21.1328125 16.78515625 21.1328125 C16.78515625 21.7928125 16.78515625 22.4528125 16.78515625 23.1328125 C16.14578125 23.2359375 15.50640625 23.3390625 14.84765625 23.4453125 C14.16703125 23.6721875 13.48640625 23.8990625 12.78515625 24.1328125 C12.45515625 25.1228125 12.12515625 26.1128125 11.78515625 27.1328125 C-4.07849592 28.06232337 -4.07849592 28.06232337 -9.56640625 23.80859375 C-15.48966126 17.78708569 -17.94706459 12.56785614 -18.21484375 4.1328125 C-11.78292455 1.28792516 -7.14700028 0.00625949 0 0 Z " fill="#C67695" transform="translate(318.21484375,330.8671875)"/>
<path d="M0 0 C1.22251465 0.00757324 2.4450293 0.01514648 3.70458984 0.02294922 C19.49054322 0.3064301 33.59884359 3.82287247 48.40234375 9.05078125 C52.99299914 10.65252196 57.65757209 11.77986111 62.41015625 12.796875 C63.44462891 13.11398438 63.44462891 13.11398438 64.5 13.4375 C64.995 14.4275 64.995 14.4275 65.5 15.4375 C67.51669827 16.57100534 67.51669827 16.57100534 69.5 17.4375 C69.5 18.0975 69.5 18.7575 69.5 19.4375 C70.325 19.67726562 71.15 19.91703125 72 20.1640625 C76.11170597 21.66006266 79.71679183 23.63644417 83.5 25.8125 C84.18578125 26.19921875 84.8715625 26.5859375 85.578125 26.984375 C87.56528511 28.11447751 89.53554609 29.26843502 91.5 30.4375 C92.10150879 30.78941406 92.70301758 31.14132813 93.32275391 31.50390625 C94.9765625 32.5234375 94.9765625 32.5234375 97.5 34.4375 C97.875 37.6875 97.875 37.6875 97.5 40.4375 C92.69313148 38.74988147 88.52756814 36.18104595 84.1875 33.5625 C70.39453745 25.25467448 55.95795406 19.00626849 40.5 14.4375 C39.72994629 14.20466309 38.95989258 13.97182617 38.16650391 13.73193359 C26.46156886 10.30434193 15.19853018 8.95739696 3 8.875 C1.77273193 8.86041748 0.54546387 8.84583496 -0.71899414 8.83081055 C-10.69974519 8.94173019 -19.4402405 11.23276171 -28.77929688 14.63061523 C-31.5 15.4375 -31.5 15.4375 -33.5 14.4375 C-33.5 12.1275 -33.5 9.8175 -33.5 7.4375 C-22.80231138 1.47148135 -12.15000513 -0.10662353 0 0 Z " fill="#746E70" transform="translate(312.5,121.5625)"/>
<path d="M0 0 C2.4375 2.25 2.4375 2.25 5 5 C7.31787493 6.43708246 9.59534133 7.73012407 12 9 C12.87398438 9.48726562 13.74796875 9.97453125 14.6484375 10.4765625 C18.74235833 12.75345546 22.77966207 14.98861816 27.125 16.75 C30 18 30 18 31 20 C30.93595446 22.00287872 30.79920681 24.00368415 30.625 26 C30.52574219 27.15886719 30.42648437 28.31773437 30.32421875 29.51171875 C29.90608986 34.01038256 29.47666977 38.50713389 29 43 C28.67 43 28.34 43 28 43 C28 37.06 28 31.12 28 25 C26.02 25 24.04 25 22 25 C21.7525 25.639375 21.505 26.27875 21.25 26.9375 C20 29 20 29 17.875 29.75 C16.946875 29.87375 16.946875 29.87375 16 30 C15.505 29.01 15.505 29.01 15 28 C15.66 28 16.32 28 17 28 C17.33 26.68 17.66 25.36 18 24 C19.32 23.67 20.64 23.34 22 23 C21.505 21.02 21.505 21.02 21 19 C20.15695312 18.9175 19.31390625 18.835 18.4453125 18.75 C14.42052403 17.87385557 11.33787117 16.12985195 7.875 14 C2.76669361 10.50445559 2.76669361 10.50445559 -3 9 C-5.66776738 10.46709984 -5.66776738 10.46709984 -8.3125 12.625 C-9.27414062 13.35976562 -10.23578125 14.09453125 -11.2265625 14.8515625 C-12.59941406 15.91503906 -12.59941406 15.91503906 -14 17 C-15.39010607 18.00794633 -16.7848626 19.00956625 -18.1875 20 C-19.115625 20.66 -20.04375 21.32 -21 22 C-20.32425684 25.11118093 -20.32425684 25.11118093 -17.92578125 26.24609375 C-17.06339844 26.63925781 -16.20101563 27.03242188 -15.3125 27.4375 C-12.18484891 28.89943323 -9.71234462 30.21720917 -6.9375 32.3125 C-2.92949995 34.61496811 0.47280296 34.74614914 5 34 C6.6829392 33.02763513 8.35443434 32.03435556 10 31 C12.3125 31.8125 12.3125 31.8125 14 33 C11.87259688 37.23367309 10.19174445 38.61892982 5.875 40.4375 C3.11242005 41.81443904 3.11242005 41.81443904 1 44 C0.11361055 47.69615796 -0.00277956 50.96343814 0.0625 54.7578125 C0.00025796 57.98661836 -0.4836014 59.26379252 -2 62 C-1.97474243 61.13834229 -1.97474243 61.13834229 -1.94897461 60.25927734 C-1.86252363 55.7665424 -1.91871378 51.30336239 -2.2421875 46.8203125 C-2.30003418 45.98773926 -2.35788086 45.15516602 -2.41748047 44.29736328 C-3.15000876 41.40838958 -4.33603772 40.18971656 -6.5625 38.25 C-8.35040451 37.44312101 -10.16883653 36.70320453 -12 36 C-14.13332174 34.94902532 -16.24149934 33.85429238 -18.35327148 32.76074219 C-21.54363265 31.12060956 -24.77042676 29.56129062 -28 28 C-27.94812459 31.75112898 -27.85304782 35.49995532 -27.75 39.25 C-27.73582031 40.31347656 -27.72164063 41.37695312 -27.70703125 42.47265625 C-27.67480469 43.49746094 -27.64257812 44.52226562 -27.609375 45.578125 C-27.58842773 46.52075195 -27.56748047 47.46337891 -27.54589844 48.43457031 C-26.85780753 51.66822831 -25.483164 52.89753013 -23 55 C-24.75 56.5625 -24.75 56.5625 -27 58 C-29.1875 57.8125 -29.1875 57.8125 -31 57 C-33.39365858 52.21268285 -32.35429525 45.00840085 -32.4050293 39.68798828 C-32.42663367 37.98270446 -32.46076605 36.27753225 -32.50756836 34.57275391 C-32.57447656 32.11310384 -32.60200688 29.65574333 -32.62109375 27.1953125 C-32.64892441 26.4347757 -32.67675507 25.67423889 -32.70542908 24.89065552 C-32.69702148 22.72705078 -32.69702148 22.72705078 -32 19 C-29.08081055 16.57446289 -29.08081055 16.57446289 -26 15 C-24.781897 14.11749681 -23.57242095 13.22286798 -22.375 12.3125 C-21.7046875 11.81105469 -21.034375 11.30960938 -20.34375 10.79296875 C-18.55415201 9.42392629 -16.78732197 8.02507069 -15.03125 6.61328125 C-13.979188 5.78382711 -12.9271047 4.95439998 -11.875 4.125 C-10.90304687 3.34382812 -9.93109375 2.56265625 -8.9296875 1.7578125 C-5.58536644 -0.24878014 -3.83227954 -0.54823634 0 0 Z " fill="#9F9D9E" transform="translate(410,191)"/>
<path d="M0 0 C7.70113032 -0.30668218 16.96620804 -0.51689598 24 3 C24 3.66 24 4.32 24 5 C24.66386719 5.10957031 25.32773438 5.21914063 26.01171875 5.33203125 C30.90879478 6.21136023 34.90161428 6.99451714 39 10 C38.49890042 14.38462134 37.01704885 16.8000997 34 20 C33.34 20 32.68 20 32 20 C32 20.99 32 21.98 32 23 C25.36595729 26.88028913 18.56793102 29.21301354 10.8125 27.5234375 C7.95223632 26.43892086 6.249677 25.37994327 4.5625 22.8125 C4.376875 22.214375 4.19125 21.61625 4 21 C3.34 21 2.68 21 2 21 C-1.90541325 15.38596846 -2.98374207 10.82900019 -2 4 C-0.9765625 1.69921875 -0.9765625 1.69921875 0 0 Z " fill="#C47695" transform="translate(179,313)"/>
<path d="M0 0 C3.63545145 1.21407879 6.83450673 3.18479472 10.15551758 5.07397461 C10.87545898 5.47358398 11.59540039 5.87319336 12.3371582 6.28491211 C13.37839844 6.87272461 13.37839844 6.87272461 14.44067383 7.47241211 C15.06981689 7.8273877 15.69895996 8.18236328 16.34716797 8.5480957 C18.18009381 9.756376 19.59740655 11.09856458 21.09301758 12.69897461 C3.7948301 26.98415812 3.7948301 26.98415812 -2.90698242 26.69897461 C-6.15698242 24.57397461 -6.15698242 24.57397461 -7.89526367 23.17944336 C-11.58129228 20.4668126 -15.78176002 18.64953248 -19.90698242 16.69897461 C-19.90698242 12.69897461 -19.90698242 12.69897461 -18.50854492 11.24194336 C-17.8562793 10.79463867 -17.20401367 10.34733398 -16.53198242 9.88647461 C-15.8075293 9.38374023 -15.08307617 8.88100586 -14.33666992 8.36303711 C-13.13397461 7.53932617 -13.13397461 7.53932617 -11.90698242 6.69897461 C-11.04331055 6.04670898 -10.17963867 5.39444336 -9.28979492 4.72241211 C-8.4209668 4.07530273 -7.55213867 3.42819336 -6.65698242 2.76147461 C-5.84745117 2.15432617 -5.03791992 1.54717773 -4.20385742 0.92163086 C-1.90698242 -0.30102539 -1.90698242 -0.30102539 0 0 Z " fill="#FAF8F9" transform="translate(408.906982421875,199.301025390625)"/>
<path d="M0 0 C0.14150909 3.34118693 0.0939852 6.65739602 0 10 C-0.01933594 11.24007812 -0.03867187 12.48015625 -0.05859375 13.7578125 C-0.69800889 23.65399139 -0.69800889 23.65399139 -4.1953125 27.26953125 C-7.05303639 29.07290972 -9.95594687 30.53548073 -13 32 C-15.03640151 33.26698028 -17.05803184 34.55808029 -19.0625 35.875 C-23.75384615 38.87692308 -23.75384615 38.87692308 -26 40 C-26.14575327 36.60462148 -26.23421542 33.21005098 -26.3125 29.8125 C-26.35439453 28.85279297 -26.39628906 27.89308594 -26.43945312 26.90429688 C-26.56300374 19.76307114 -26.56300374 19.76307114 -23.8125 16.03515625 C-21.15197851 14.10997334 -18.51171405 12.30072759 -15.6875 10.625 C-11.21376643 7.87425841 -7.3696818 4.89023954 -3.55859375 1.28515625 C-2 0 -2 0 0 0 Z " fill="#FBF9FA" transform="translate(437,217)"/>
<path d="M0 0 C2.87335972 4.31003959 2.57489229 7.94094789 2 13 C-0.63206501 22.81042411 -5.97644255 31.04202623 -14.16796875 37.00390625 C-16 38 -16 38 -19 38 C-21.64817403 30.38649966 -22.34968156 22.57354506 -19.11328125 15.01171875 C-15.08939716 7.74048961 -9.24349903 -1.43787763 0 0 Z " fill="#746C6F" transform="translate(243,63)"/>
<path d="M0 0 C6.18457883 1.20932053 10.55991044 5.12334601 14.12255859 10.22216797 C16.65087858 14.21547511 18.80860876 18.38339594 20.9765625 22.58203125 C21.71019396 23.82359881 22.4471479 25.06320947 23.1875 26.30078125 C25.08644636 29.78356497 25.35648232 31.68785311 24.9765625 35.58203125 C23.0390625 35.20703125 23.0390625 35.20703125 20.9765625 34.58203125 C20.6465625 33.92203125 20.3165625 33.26203125 19.9765625 32.58203125 C18.31723559 31.56989886 16.64933009 30.57179202 14.9765625 29.58203125 C13.41669531 28.33360512 11.87550309 27.06156784 10.3515625 25.76953125 C4.50349222 21.02289125 -1.78216567 17.27374081 -8.78515625 14.48046875 C-11.0234375 13.58203125 -11.0234375 13.58203125 -12.0234375 12.58203125 C-12.0078125 10.62109375 -12.0078125 10.62109375 -11.7734375 8.20703125 C-11.67289062 7.01980469 -11.67289062 7.01980469 -11.5703125 5.80859375 C-10.07723277 -0.27037371 -5.4547048 -0.19429687 0 0 Z " fill="#CB8AA4" transform="translate(317.0234375,143.41796875)"/>
<path d="M0 0 C0.69311279 0.69383789 1.38622559 1.38767578 2.1003418 2.10253906 C4.62326615 4.62551878 7.15256037 7.14203055 9.68305969 9.65740967 C12.09480195 12.0557561 14.50387219 14.45677919 16.9128418 16.85791016 C18.18735538 18.127346 19.46275765 19.39589019 20.73901367 20.66357422 C22.58484474 22.49735647 24.42749814 24.33427877 26.26953125 26.171875 C26.84443802 26.74162048 27.41934479 27.31136597 28.01167297 27.89837646 C29.36022739 29.24673666 30.68306058 30.62074484 32 32 C32 32.33 32 32.66 32 33 C31.38068604 33.02505615 30.76137207 33.0501123 30.12329102 33.07592773 C27.26955112 33.19322658 24.41603559 33.31533586 21.5625 33.4375 C20.58861328 33.47681641 19.61472656 33.51613281 18.61132812 33.55664062 C12.69938401 33.81368167 6.87354003 34.27719621 1 35 C-0.02540318 27.45077186 -0.11725965 20.04909157 -0.0625 12.4375 C-0.05798828 11.23802734 -0.05347656 10.03855469 -0.04882812 8.80273438 C-0.03713769 5.86843641 -0.02075138 2.93424551 0 0 Z " fill="#F8F7F8" transform="translate(293,254)"/>
<path d="M0 0 C8.18250026 3.50942449 14.39658363 12.27372003 20 19 C20.4424707 19.52867676 20.88494141 20.05735352 21.34082031 20.60205078 C38.59021375 41.31840152 48.72293716 63.50376067 54.49853516 89.73828125 C55.03130859 92.14120874 55.58269476 94.53938769 56.13671875 96.9375 C56.5082573 98.56239836 56.87936223 100.18739594 57.25 101.8125 C57.42539307 102.57151611 57.60078613 103.33053223 57.78149414 104.11254883 C58.54754147 107.5255736 59 110.48129476 59 114 C57.68 113.67 56.36 113.34 55 113 C54.70609375 111.07027344 54.70609375 111.07027344 54.40625 109.1015625 C52.65010612 98.25353535 50.28259165 87.7622071 47.0625 77.25 C46.73894531 76.18088379 46.41539062 75.11176758 46.08203125 74.01025391 C43.96697232 67.30732162 41.31749745 61.18893363 38 55 C37.65976807 54.33355469 37.31953613 53.66710937 36.96899414 52.98046875 C29.1461389 37.68559431 18.30938429 25.18054768 6.55859375 12.76953125 C0.06591839 5.74158189 0.06591839 5.74158189 -0.25 2.1875 C-0.1675 1.465625 -0.085 0.74375 0 0 Z " fill="#706C6D" transform="translate(413,159)"/>
<path d="M0 0 C0.495 0.66 0.99 1.32 1.5 2 C6.09202726 7.51043271 10.71005784 12.46190753 17 16 C17 16.66 17 17.32 17 18 C17.804375 18.268125 18.60875 18.53625 19.4375 18.8125 C20.283125 19.204375 21.12875 19.59625 22 20 C23.1687481 23.5062443 23.12514267 26.6477866 23.09765625 30.29296875 C23.0962413 30.99899734 23.09482635 31.70502594 23.09336853 32.43244934 C23.08777764 34.68417626 23.07522688 36.93580321 23.0625 39.1875 C23.05748382 40.71549335 23.05292112 42.24348827 23.04882812 43.77148438 C23.0378112 47.51436135 23.02055287 51.25716373 23 55 C20.525 55.495 20.525 55.495 18 56 C17.87625 54.7934375 17.87625 54.7934375 17.75 53.5625 C16.96416357 49.82977694 15.68812712 46.83379492 14.09765625 43.390625 C0 12.68683274 0 12.68683274 0 0 Z " fill="#E5CA75" transform="translate(160,353)"/>
<path d="M0 0 C2.9033072 4.3549608 2.29430407 9.83172032 2.25 14.875 C2.25773437 15.74769531 2.26546875 16.62039062 2.2734375 17.51953125 C2.25785683 22.70010519 2.02726704 27.19599143 0 32 C-2.2421875 33.8125 -2.2421875 33.8125 -4.875 35 C-5.73867187 35.4125 -6.60234375 35.825 -7.4921875 36.25 C-10.19629717 37.0587057 -11.42643463 37.10790258 -14 36 C-15.97323654 32.05352692 -15.16942968 27.31319546 -15 23 C-14.97631348 22.31760254 -14.95262695 21.63520508 -14.92822266 20.93212891 C-14.28013586 6.15114437 -14.28013586 6.15114437 -9.1875 1.375 C-5.94119071 -1.09897652 -3.84051355 -1.56159725 0 0 Z " fill="#787274" transform="translate(217,63)"/>
<path d="M0 0 C10.4708543 -0.76010646 19.28216679 7.71370037 27 14 C27.7425 14.52078125 28.485 15.0415625 29.25 15.578125 C29.8275 16.04734375 30.405 16.5165625 31 17 C31 17.66 31 18.32 31 19 C31.66 19 32.32 19 33 19 C33 19.99 33 20.98 33 22 C26.81295046 24.65159266 21.50589151 26.47967124 14.89453125 24.30859375 C7.42933783 20.9611618 3.80518232 15.52630623 0.71484375 8.19140625 C-0.19971744 5.38775146 -0.29977861 2.92284148 0 0 Z " fill="#999596" transform="translate(162,45)"/>
<path d="M0 0 C0.66 0.33 1.32 0.66 2 1 C1.67 3.64 1.34 6.28 1 9 C1.64066406 8.84402344 2.28132812 8.68804687 2.94140625 8.52734375 C9.65637894 7.01622471 14.79861061 6.43069148 21.1875 9.5625 C27.50089321 12.4972973 35.39399217 11.50026551 42 10 C42.78260048 12.81736172 43.19511109 14.45969238 42.1875 17.25 C41 19 41 19 39 20 C36.94125462 20.14972694 34.87648604 20.22149847 32.8125 20.25 C31.70519531 20.27578125 30.59789062 20.3015625 29.45703125 20.328125 C26 20 26 20 22.70703125 18.4765625 C17.187732 16.27814826 12.05414762 16.92484869 6.20703125 17.29296875 C1.59466281 17.4529755 -0.31304325 17.51823053 -4.1171875 14.6484375 C-6 12 -6 12 -6 9.5 C-4.5172225 5.79305625 -2.82935856 2.82935856 0 0 Z " fill="#968A8D" transform="translate(238,347)"/>
<path d="M0 0 C2.41643455 2.41643455 2.53936781 3.75077176 3.25 7.0625 C4.51366492 12.41373411 6.1478597 17.519898 8 22.6875 C8.2570874 23.42097656 8.5141748 24.15445312 8.77905273 24.91015625 C9.85166557 27.94322699 10.94607191 30.88372261 12.30078125 33.8046875 C13.3125 36.0625 13.3125 36.0625 14 40 C12.18440886 43.26688891 9.79965428 45.55927575 7 48 C6.113125 48.804375 5.22625 49.60875 4.3125 50.4375 C2.08313224 51.94382957 0.57967595 52.44061764 -2 53 C-1.93433838 52.14849365 -1.86867676 51.2969873 -1.80102539 50.41967773 C-1.02072281 39.63803137 -0.68893132 28.8678892 -0.4375 18.0625 C-0.39416685 16.30012314 -0.35054871 14.53775326 -0.30664062 12.77539062 C-0.2011528 8.51700016 -0.09948203 4.25853482 0 0 Z " fill="#E4C877" transform="translate(427,318)"/>
<path d="M0 0 C5.41079958 1.75728385 10.68295914 3.79971705 15.9765625 5.87890625 C19.12292935 7.10856635 19.12292935 7.10856635 23 8 C23 12.29 23 16.58 23 21 C22.01 21 21.02 21 20 21 C20 21.66 20 22.32 20 23 C12.57381273 21.80222786 5.61244082 14.38426774 0.984375 8.7421875 C-0.64908583 5.85122111 -0.39231571 3.20391164 0 0 Z " fill="#E1C572" transform="translate(187,376)"/>
<path d="M0 0 C3.66398299 1.68970089 6.90832572 3.87300211 10.25 6.125 C11.86648438 7.21167969 11.86648438 7.21167969 13.515625 8.3203125 C14.33546875 8.87460937 15.1553125 9.42890625 16 10 C13.66871112 27.51617047 5.18642645 46.09678796 -9 57 C-9.66 56.67 -10.32 56.34 -11 56 C-10.44570313 55.55269531 -9.89140625 55.10539062 -9.3203125 54.64453125 C-3.94159631 50.19546304 -3.94159631 50.19546304 -1 44 C-0.34 42.906875 0.32 41.81375 1 40.6875 C5.87031755 32.14627146 5.80759222 22.56759249 5 13 C4.02289526 9.43202025 2.66806174 6.28923017 1 3 C0.67 2.01 0.34 1.02 0 0 Z " fill="#F2EEF0" transform="translate(347,305)"/>
<path d="M0 0 C0.66 0 1.32 0 2 0 C2 0.66 2 1.32 2 2 C2.94875 1.938125 3.8975 1.87625 4.875 1.8125 C14.33070135 1.83156391 25.36148172 6.57911606 33 12 C33 12.66 33 13.32 33 14 C33.99 14.33 34.98 14.66 36 15 C35.67 16.98 35.34 18.96 35 21 C34.34 21 33.68 21 33 21 C33 26.61 33 32.22 33 38 C32.67 38 32.34 38 32 38 C32 31.73 32 25.46 32 19 C32.66 19 33.32 19 34 19 C34 18.01 34 17.02 34 16 C33.34 15.67 32.68 15.34 32 15 C32 14.34 32 13.68 32 13 C28.97601304 11.73187644 25.92921103 10.63627326 22.8125 9.625 C19.44119245 8.52736498 16.20043829 7.2604938 12.9375 5.875 C8.56589505 4.08257356 4.70164586 3.34827006 0 3 C0 2.01 0 1.02 0 0 Z M14 7 C14.99 7.33 15.98 7.66 17 8 C18.46704554 11.58611131 19.32784675 15.1911316 20 19 C14.8 22.86976744 14.8 22.86976744 11.3125 23.4375 C9 23 9 23 7.1875 21.9375 C5.39157863 19.00731249 5.81022426 16.3527047 6 13 C8.90600261 11.74335022 10.79604584 11 14 11 C14 9.68 14 8.36 14 7 Z " fill="#877F7F" transform="translate(192,272)"/>
<path d="M0 0 C-0.66 2.64 -1.32 5.28 -2 8 C-1.38125 7.835 -0.7625 7.67 -0.125 7.5 C4.25470729 6.79924683 8.57428989 6.92265749 13 7 C13.59375 8.828125 13.59375 8.828125 14 11 C12.5 13.75 12.5 13.75 10 16 C4.82737911 16.75238122 2.28069067 15.74403248 -2 13 C-5.19395026 12.28598768 -5.19395026 12.28598768 -8 12 C-8 12.66 -8 13.32 -8 14 C-8.66 14 -9.32 14 -10 14 C-10.33 15.32 -10.66 16.64 -11 18 C-11.66 18 -12.32 18 -13 18 C-11.58036591 12.32146365 -8.60636039 8.46825784 -5 4 C-10.15171623 3.90961901 -14.91913204 4.15318867 -20 5 C-19.67 4.34 -19.34 3.68 -19 3 C-18.01 3 -17.02 3 -16 3 C-16 2.34 -16 1.68 -16 1 C-14.08351538 0.83125293 -12.16680367 0.66508357 -10.25 0.5 C-8.64898437 0.36078125 -8.64898437 0.36078125 -7.015625 0.21875 C-4.6820782 0.04947717 -2.33967818 0 0 0 Z " fill="#847A7E" transform="translate(314,293)"/>
<path d="M0 0 C2.875 0.3125 2.875 0.3125 6 1 C8 4 8 4 7.9375 6 C6.57082095 8.91558198 4.89322339 9.68489846 2 11 C-0.6875 11.3125 -0.6875 11.3125 -3 11 C-3.66 10.34 -4.32 9.68 -5 9 C-4.875 6.5 -4.875 6.5 -4 4 C-1.9375 2.6875 -1.9375 2.6875 0 2 C0 1.34 0 0.68 0 0 Z " fill="#F1EEED" transform="translate(204,284)"/>
<path d="M0 0 C0.90492188 0.02320313 1.80984375 0.04640625 2.7421875 0.0703125 C4.10730469 0.09738281 4.10730469 0.09738281 5.5 0.125 C6.19867188 0.14820313 6.89734375 0.17140625 7.6171875 0.1953125 C8.2109375 2.0234375 8.2109375 2.0234375 8.6171875 4.1953125 C7.1171875 6.9453125 7.1171875 6.9453125 4.6171875 9.1953125 C0.9921875 9.6328125 0.9921875 9.6328125 -2.3828125 9.1953125 C-4.3828125 7.1953125 -4.3828125 7.1953125 -4.6328125 4.6953125 C-4.29201434 1.28733086 -3.44583467 0.28244546 0 0 Z " fill="#F3EDF0" transform="translate(319.3828125,299.8046875)"/>
<path d="M0 0 C0.99 0.33 1.98 0.66 3 1 C3.33 9.91 3.66 18.82 4 28 C3.01 27.67 2.02 27.34 1 27 C1 26.01 1 25.02 1 24 C0.34 24 -0.32 24 -1 24 C-1.33 24.99 -1.66 25.98 -2 27 C-1.84660156 25.88625 -1.69320313 24.7725 -1.53515625 23.625 C-0.92693771 18.75925164 -0.66688586 13.89607197 -0.4375 9 C-0.39431641 8.12988281 -0.35113281 7.25976562 -0.30664062 6.36328125 C-0.20175782 4.24231781 -0.10049925 2.12117567 0 0 Z " fill="#928A8D" transform="translate(459,295)"/>
<path d="M0 0 C4.62 0 9.24 0 14 0 C13.34 1.98 12.68 3.96 12 6 C10.35 6.33 8.7 6.66 7 7 C7 7.66 7 8.32 7 9 C5 8 5 8 4 5 C2.35 4.67 0.7 4.34 -1 4 C-0.67 2.68 -0.34 1.36 0 0 Z " fill="#675D60" transform="translate(338,374)"/>
<path d="M0 0 C1 1 1 1 1.0625 4.5625 C1.041875 5.696875 1.02125 6.83125 1 8 C-2.96 8.99 -6.92 9.98 -11 11 C-9 8 -9 8 -6.8359375 7.48828125 C-5.61777344 7.40126953 -5.61777344 7.40126953 -4.375 7.3125 C-3.14910156 7.21388672 -3.14910156 7.21388672 -1.8984375 7.11328125 C-1.27195312 7.07589844 -0.64546875 7.03851563 0 7 C0 5.35 0 3.7 0 2 C-0.99 2.495 -0.99 2.495 -2 3 C-3.44848582 3.08342159 -4.90070869 3.10732861 -6.3515625 3.09765625 C-7.20234375 3.09443359 -8.053125 3.09121094 -8.9296875 3.08789062 C-9.81914062 3.07951172 -10.70859375 3.07113281 -11.625 3.0625 C-12.5221875 3.05798828 -13.419375 3.05347656 -14.34375 3.04882812 C-16.56256648 3.03702591 -18.78125018 3.02056155 -21 3 C-21 2.67 -21 2.34 -21 2 C-20.01257813 1.93941406 -19.02515625 1.87882812 -18.0078125 1.81640625 C-16.72648437 1.73261719 -15.44515625 1.64882813 -14.125 1.5625 C-12.84882813 1.48128906 -11.57265625 1.40007812 -10.2578125 1.31640625 C-6.52123859 0.95350159 -3.84561206 -0.19721087 0 0 Z " fill="#AFA8A9" transform="translate(360,370)"/>
<path d="M0 0 C6.15234375 0.5859375 6.15234375 0.5859375 8 1 C8.33 1.66 8.66 2.32 9 3 C11.01669827 4.13350534 11.01669827 4.13350534 13 5 C9.93109813 6.53445094 7.29905734 5.54984289 4 5 C4 5.99 4 6.98 4 8 C0.7 7.01 -2.6 6.02 -6 5 C-2 4 -2 4 1 4 C1.33 3.01 1.66 2.02 2 1 C1.34 0.67 0.68 0.34 0 0 Z " fill="#9F999B" transform="translate(369,134)"/>
<path d="M0 0 C0.33 0 0.66 0 1 0 C1.0809313 2.60478883 1.14045434 5.20706653 1.1875 7.8125 C1.22520508 8.91948242 1.22520508 8.91948242 1.26367188 10.04882812 C1.33749706 15.48728323 1.33749706 15.48728323 -0.32421875 18.01171875 C-2 19 -2 19 -5 19 C-5.33 17.02 -5.66 15.04 -6 13 C-4.02 12.67 -2.04 12.34 0 12 C0 8.04 0 4.08 0 0 Z " fill="#C197A5" transform="translate(203,120)"/>
<path d="M0 0 C0.6875 1.6875 0.6875 1.6875 1 4 C-0.23828125 6.38671875 -0.23828125 6.38671875 -2 9 C-3.07180066 10.93237053 -4.1342991 12.86992945 -5.1875 14.8125 C-5.71730469 15.78832031 -6.24710937 16.76414063 -6.79296875 17.76953125 C-7.19128906 18.50558594 -7.58960937 19.24164063 -8 20 C-8.66 20 -9.32 20 -10 20 C-8.56347895 15.08558588 -6.45840385 10.99761642 -3.875 6.625 C-3.50246094 5.98433594 -3.12992187 5.34367188 -2.74609375 4.68359375 C-1.83565998 3.11951523 -0.91851809 1.55934466 0 0 Z " fill="#999597" transform="translate(74,196)"/>
<path d="M0 0 C-5.11281717 3.22914769 -10.08042413 3.99636425 -16 3 C-18.3046875 1.4765625 -18.3046875 1.4765625 -20 0 C-18.51886719 0.01740234 -18.51886719 0.01740234 -17.0078125 0.03515625 C-15.72648438 0.04417969 -14.44515625 0.05320312 -13.125 0.0625 C-11.21074219 0.07990234 -11.21074219 0.07990234 -9.2578125 0.09765625 C-0.54505814 -0.16351744 -0.54505814 -0.16351744 0 0 Z " fill="#989496" transform="translate(207,346)"/>
<path d="M0 0 C0.66 0.33 1.32 0.66 2 1 C0.625 3 0.625 3 -1 5 C-1.66 5 -2.32 5 -3 5 C-3.2475 5.7425 -3.495 6.485 -3.75 7.25 C-5.09147301 10.20124062 -6.60905526 11.84814974 -9 14 C-9 10.46069683 -8.30992012 9.72661271 -6.1875 7 C-5.40439453 5.9790625 -5.40439453 5.9790625 -4.60546875 4.9375 C-3.15104815 3.18228682 -1.64239475 1.57827724 0 0 Z " fill="#949091" transform="translate(235,64)"/>
<path d="M0 0 C0.33 0 0.66 0 1 0 C1 2.31 1 4.62 1 7 C-0.4800841 6.88637738 -1.95910074 6.75877092 -3.4375 6.625 C-4.26121094 6.55539062 -5.08492188 6.48578125 -5.93359375 6.4140625 C-6.61550781 6.27742188 -7.29742187 6.14078125 -8 6 C-8.33 5.34 -8.66 4.68 -9 4 C-6.03 4 -3.06 4 0 4 C0 2.68 0 1.36 0 0 Z " fill="#9B9494" transform="translate(361,293)"/>
<path d="M0 0 C-1 3 -1 3 -2.70703125 4.203125 C-3.40183594 4.54859375 -4.09664062 4.8940625 -4.8125 5.25 C-5.49957031 5.60578125 -6.18664062 5.9615625 -6.89453125 6.328125 C-9.35077442 7.11193544 -10.60042386 6.84119973 -13 6 C-11.21118264 4.99491199 -9.41885304 3.99607264 -7.625 3 C-6.62726563 2.443125 -5.62953125 1.88625 -4.6015625 1.3125 C-2 0 -2 0 0 0 Z " fill="#938D8F" transform="translate(167,100)"/>
<path d="M0 0 C-0.33 2.97 -0.66 5.94 -1 9 C-2.65 9 -4.3 9 -6 9 C-5.67 8.34 -5.34 7.68 -5 7 C-4.34 7 -3.68 7 -3 7 C-2.67 5.68 -2.34 4.36 -2 3 C-2.99 2.34 -3.98 1.68 -5 1 C-3 0 -3 0 0 0 Z " fill="#A6A1A1" transform="translate(313,478)"/>
<path d="M0 0 C6.20970773 -0.33266291 10.28264895 0.54970669 16 3 C12.23331402 4.3805087 9.55210827 3.59568159 5.75 2.5625 C4.13351562 2.13130859 4.13351562 2.13130859 2.484375 1.69140625 C1.25460937 1.34916016 1.25460937 1.34916016 0 1 C0 0.67 0 0.34 0 0 Z " fill="#A6A0A2" transform="translate(341,132)"/>
<path d="M0 0 C0 3.20395416 -0.74335022 5.09399739 -2 8 C-2.66 8 -3.32 8 -4 8 C-4.33 8.99 -4.66 9.98 -5 11 C-5.33 10.34 -5.66 9.68 -6 9 C-5.0625 6.375 -5.0625 6.375 -4 4 C-3.34 4 -2.68 4 -2 4 C-1.34 2.68 -0.68 1.36 0 0 Z " fill="#C0B9B8" transform="translate(342,388)"/>
<path d="M0 0 C3 3 3 3 3.07421875 5.91796875 C2.94660156 6.99691406 2.81898438 8.07585937 2.6875 9.1875 C2.56761719 10.27417969 2.44773437 11.36085938 2.32421875 12.48046875 C2.21722656 13.31191406 2.11023438 14.14335937 2 15 C0.68 14.67 -0.64 14.34 -2 14 C-1.01 14 -0.02 14 1 14 C0.67 9.38 0.34 4.76 0 0 Z " fill="#C0B9B9" transform="translate(261,320)"/>
<path d="M0 0 C1.45606519 4.52092968 0.27032841 7.51648796 -1 12 C-1.33 12 -1.66 12 -2 12 C-2.05422947 10.5629191 -2.09289723 9.12524538 -2.125 7.6875 C-2.14820313 6.88699219 -2.17140625 6.08648437 -2.1953125 5.26171875 C-2 3 -2 3 0 0 Z " fill="#D4D0D1" transform="translate(493,445)"/>
<path d="M0 0 C0 3 0 3 -2.375 5.6875 C-5 8 -5 8 -7 8 C-7 7.34 -7 6.68 -7 6 C-6.34 6 -5.68 6 -5 6 C-4.731875 5.38125 -4.46375 4.7625 -4.1875 4.125 C-3 2 -3 2 0 0 Z " fill="#9C9393" transform="translate(344,352)"/>
<path d="M0 0 C0.33 1.32 0.66 2.64 1 4 C0.01 4 -0.98 4 -2 4 C-2.28875 4.639375 -2.5775 5.27875 -2.875 5.9375 C-4 8 -4 8 -6 9 C-4.47291037 5.56404834 -2.40072955 2.88087546 0 0 Z " fill="#999597" transform="translate(354,411)"/>
</svg>
